<svg width="91" height="91" viewBox="0 0 91 91" fill="none" xmlns="http://www.w3.org/2000/svg">
<path id="Combined Shape" fill-rule="evenodd" clip-rule="evenodd" d="M5.6875 0H85.3125C88.4406 0 91 2.55938 91 5.6875V85.3125C91 88.4406 88.4406 91 85.3125 91H5.6875C2.55938 91 0 88.4406 0 85.3125V5.6875C0 2.55938 2.55938 0 5.6875 0ZM85.3125 2.84375H5.6875C4.119 2.84375 2.84375 4.119 2.84375 5.6875V8.53125H88.1562V5.6875C88.1562 4.119 86.881 2.84375 85.3125 2.84375ZM85.3125 88.1562H5.6875C4.119 88.1562 2.84375 86.881 2.84375 85.3125V11.375H88.1562V85.3125C88.1562 86.881 86.881 88.1562 85.3125 88.1562ZM82.5 7C83.3283 7 84 6.32834 84 5.5C84 4.67166 83.3283 4 82.5 4C81.671 4 81 4.67166 81 5.5C81 6.32834 81.671 7 82.5 7ZM78 5.5C78 6.32834 77.3283 7 76.5 7C75.671 7 75 6.32834 75 5.5C75 4.67166 75.671 4 76.5 4C77.3283 4 78 4.67166 78 5.5ZM67.9712 57.1687L73.2814 60.2073L73.2814 60.2072C73.7239 60.4597 74 60.9574 74 61.5002C74 62.0423 73.7239 62.54 73.2814 62.7931L67.9713 65.8317C67.772 65.9459 67.5571 66 67.3464 66C66.8631 66 66.3961 65.7169 66.1554 65.2185C65.809 64.5042 66.0611 63.621 66.7185 63.2452L69.7697 61.4996L66.7185 59.7539C66.0617 59.3782 65.8096 58.4949 66.1554 57.7806C66.5011 57.067 67.3127 56.7923 67.9712 57.1687ZM73.5455 42H72.4545C71.6513 42 71 42.6717 71 43.5C71 44.3283 71.6513 45 72.4545 45H73.5455C74.3487 45 75 44.3283 75 43.5C75 42.6717 74.3487 42 73.5455 42ZM56.4286 45C55.6397 45 55 44.3283 55 43.5C55 42.6717 55.6397 42 56.4286 42H58.5714C59.3603 42 60 42.6717 60 43.5C60 44.3283 59.3603 45 58.5714 45H56.4286ZM40.4286 45H42.5714C43.3603 45 44 44.3283 44 43.5C44 42.6717 43.3603 42 42.5714 42H40.4286C39.6397 42 39 42.6717 39 43.5C39 44.3283 39.6397 45 40.4286 45ZM35.5714 45H33.4286C32.6397 45 32 44.3283 32 43.5C32 42.6717 32.6397 42 33.4286 42H35.5714C36.3603 42 37 42.6717 37 43.5C37 44.3283 36.3603 45 35.5714 45ZM24 43.5C24 44.3283 24.6397 45 25.4286 45H27.5714C28.3603 45 29 44.3283 29 43.5C29 42.6717 28.3603 42 27.5714 42H25.4286C24.6397 42 24 42.6717 24 43.5ZM66.5716 45H64.4284C63.6396 45 63 44.3283 63 43.5C63 42.6717 63.6396 42 64.4284 42H66.5716C67.3604 42 68 42.6717 68 43.5C68 44.3283 67.3604 45 66.5716 45ZM48.4286 45H50.5714C51.3603 45 52 44.3283 52 43.5C52 42.6717 51.3603 42 50.5714 42H48.4286C47.6397 42 47 42.6717 47 43.5C47 44.3283 47.6397 45 48.4286 45ZM19.5455 45H18.4545C17.6513 45 17 44.3283 17 43.5C17 42.6717 17.6513 42 18.4545 42H19.5455C20.3487 42 21 42.6717 21 43.5C21 44.3283 20.3487 45 19.5455 45ZM73.5455 51H72.4545C71.6513 51 71 51.6717 71 52.5C71 53.3283 71.6513 54 72.4545 54H73.5455C74.3487 54 75 53.3283 75 52.5C75 51.6717 74.3487 51 73.5455 51ZM29 52.5C29 53.3283 28.3603 54 27.5714 54H25.4286C24.6397 54 24 53.3283 24 52.5C24 51.6717 24.6397 51 25.4286 51H27.5714C28.3603 51 29 51.6717 29 52.5ZM60 52.5C60 51.6717 59.3603 51 58.5714 51H56.4286C55.6397 51 55 51.6717 55 52.5C55 53.3283 55.6397 54 56.4286 54H58.5714C59.3603 54 60 53.3283 60 52.5ZM42.5714 51C43.3603 51 44 51.6717 44 52.5C44 53.3283 43.3603 54 42.5714 54H40.4286C39.6397 54 39 53.3283 39 52.5C39 51.6717 39.6397 51 40.4286 51H42.5714ZM68 52.5C68 51.6717 67.3604 51 66.5716 51H64.4284C63.6396 51 63 51.6717 63 52.5C63 53.3283 63.6396 54 64.4284 54H66.5716C67.3604 54 68 53.3283 68 52.5ZM50.5714 51C51.3603 51 52 51.6717 52 52.5C52 53.3283 51.361 54 50.5714 54H48.4286C47.6397 54 47 53.3283 47 52.5C47 51.6717 47.6397 51 48.4286 51H50.5714ZM37 52.5C37 51.6717 36.3603 51 35.5714 51H33.4286C32.6397 51 32 51.6717 32 52.5C32 53.3283 32.6397 54 33.4286 54H35.5714C36.3603 54 37 53.3283 37 52.5ZM21 52.5C21 53.3283 20.3487 54 19.5455 54H18.4545C17.6513 54 17 53.3283 17 52.5C17 51.6717 17.6513 51 18.4545 51H19.5455C20.3487 51 21 51.6717 21 52.5ZM61.5455 60H60.4545C59.6513 60 59 60.6717 59 61.5C59 62.3283 59.6513 63 60.4545 63H61.5455C62.3487 63 63 62.3283 63 61.5C63 60.6717 62.3487 60 61.5455 60ZM51.3805 60H53.6195C54.3818 60 55 60.6717 55 61.5C55 62.3283 54.3818 63 53.6195 63H51.3805C50.6182 63 50 62.3283 50 61.5C50 60.6717 50.6182 60 51.3805 60ZM45.6198 60H43.3802C42.618 60 42 60.6717 42 61.5C42 62.3283 42.618 63 43.3802 63H45.6198C46.382 63 47 62.3283 47 61.5C47 60.6717 46.382 60 45.6198 60ZM34.3802 60H36.6198C37.382 60 38 60.6717 38 61.5C38 62.3283 37.382 63 36.6198 63H34.3802C33.618 63 33 62.3283 33 61.5C33 60.6717 33.618 60 34.3802 60ZM28.6195 60H26.3805C25.6182 60 25 60.6717 25 61.5C25 62.3283 25.6182 63 26.3805 63H28.6195C29.3818 63 30 62.3283 30 61.5C30 60.6717 29.3818 60 28.6195 60ZM19.4545 60H20.5455C21.3487 60 22 60.6717 22 61.5C22 62.3283 21.3487 63 20.5455 63H19.4545C18.6513 63 18 62.3283 18 61.5C18 60.6717 18.6513 60 19.4545 60ZM24.8494 35.2137C25.1892 34.4974 24.9345 33.6155 24.2816 33.243L21.2235 31.5007L24.2816 29.7583C24.9345 29.3858 25.1892 28.5039 24.8494 27.7877C24.5095 27.0721 23.7048 26.7923 23.0513 27.1654L17.7178 30.2037C17.2768 30.4549 17 30.9552 17 31.5005C17 32.0452 17.2768 32.5455 17.7178 32.7966L23.0513 35.835C23.2483 35.9472 23.4584 36 23.6655 36C24.147 36 24.6118 35.713 24.8493 35.2133L24.8494 35.2137ZM67.3351 36C66.853 36 66.3882 35.7136 66.1507 35.2133L66.1506 35.2136C65.8108 34.4966 66.0655 33.6153 66.7184 33.2435L69.7765 31.501L66.7184 29.7585C66.0655 29.386 65.8108 28.504 66.1506 27.7877C66.4905 27.0721 67.294 26.7922 67.9487 27.1654L73.2822 30.204C73.7232 30.4551 74 30.9548 74 31.5002C74 32.0449 73.7238 32.5452 73.2822 32.7964L67.9487 35.835C67.7523 35.9472 67.5422 36 67.3351 36ZM36.4545 33H37.5455C38.3487 33 39 32.3283 39 31.5C39 30.6717 38.3487 30 37.5455 30H36.4545C35.6513 30 35 30.6717 35 31.5C35 32.3283 35.6513 33 36.4545 33ZM43.3606 30H45.6394C46.3908 30 47 30.6717 47 31.5C47 32.3283 46.3908 33 45.6394 33H43.3606C42.6092 33 42 32.3283 42 31.5C42 30.6717 42.6092 30 43.3606 30ZM52.3609 33H54.6391C55.3906 33 56 32.3283 56 31.5C56 30.6717 55.3906 30 54.6391 30H52.3609C51.6094 30 51 30.6717 51 31.5C51 32.3283 51.6094 33 52.3609 33ZM60.4545 30H61.5455C62.3487 30 63 30.6717 63 31.5C63 32.3283 62.3487 33 61.5455 33H60.4545C59.6513 33 59 32.3283 59 31.5C59 30.6717 59.6513 30 60.4545 30ZM28.9803 34.0003C28.4349 34.0139 28.0317 34.4105 28.0017 34.9372C27.968 35.5583 28.4471 36.0042 29.0054 35.9999C29.5176 36.0067 29.9803 35.5861 29.9993 35.0402C30.0207 34.4537 29.5685 33.9855 28.9803 34.0003ZM28 28.1187C28.0683 27.4874 28.6631 27.0178 29.4668 27.0004L29.4668 27.0004C30.2839 26.9843 30.9182 27.4739 30.9912 28.1181C30.9972 28.1741 30.9999 28.2295 30.9999 28.2849C31.0021 28.5047 30.9638 28.7239 30.9257 28.942C30.9058 29.0557 30.886 29.1691 30.872 29.2821C30.8138 29.7431 30.7517 30.2042 30.6897 30.6649C30.6553 30.92 30.621 31.175 30.5873 31.4298C30.5512 31.7041 30.5147 31.9785 30.4782 32.2523C30.4511 32.4563 30.424 32.6599 30.3971 32.8631C30.3817 32.9913 30.3717 32.999 30.2035 32.999C29.7246 33.0003 29.2464 33.0003 28.7682 32.999C28.5994 32.999 28.5887 32.99 28.5726 32.8644C28.4936 32.2524 28 28.1187 28 28.1187Z" fill="black"/>
</svg>
