<svg width="37" height="37" viewBox="0 0 37 37" fill="none" xmlns="http://www.w3.org/2000/svg">
<path fill-rule="evenodd" clip-rule="evenodd" d="M24.2812 0C24.9198 0 25.4375 0.517729 25.4375 1.15625V2.3125H32.375C34.9293 2.3125 37 4.38318 37 6.9375V32.375C37 34.9293 34.9293 37 32.375 37H4.625C2.07068 37 0 34.9293 0 32.375V6.9375C0 4.38318 2.07068 2.3125 4.625 2.3125H11.5625V1.15625C11.5625 0.517729 12.0802 0 12.7188 0C13.3573 0 13.875 0.517729 13.875 1.15625V2.3125H23.125V1.15625C23.125 0.517729 23.6427 0 24.2812 0ZM34.6875 13.875H2.3125V32.375C2.3125 33.652 3.34797 34.6875 4.625 34.6875H32.375C33.652 34.6875 34.6875 33.652 34.6875 32.375V13.875ZM30.0625 28.9062C30.0625 28.2677 29.5448 27.75 28.9062 27.75C28.2677 27.75 27.75 28.2677 27.75 28.9062C27.75 29.5448 28.2677 30.0625 28.9062 30.0625C29.5448 30.0625 30.0625 29.5448 30.0625 28.9062ZM21.9688 27.75C22.6073 27.75 23.125 28.2677 23.125 28.9062C23.125 29.5448 22.6073 30.0625 21.9688 30.0625C21.3302 30.0625 20.8125 29.5448 20.8125 28.9062C20.8125 28.2677 21.3302 27.75 21.9688 27.75ZM16.1875 28.9062C16.1875 28.2677 15.6698 27.75 15.0312 27.75C14.3927 27.75 13.875 28.2677 13.875 28.9062C13.875 29.5448 14.3927 30.0625 15.0312 30.0625C15.6698 30.0625 16.1875 29.5448 16.1875 28.9062ZM8.09375 27.75C8.73227 27.75 9.25 28.2677 9.25 28.9062C9.25 29.5448 8.73227 30.0625 8.09375 30.0625C7.45523 30.0625 6.9375 29.5448 6.9375 28.9062C6.9375 28.2677 7.45523 27.75 8.09375 27.75ZM30.0625 24.2812C30.0625 23.6427 29.5448 23.125 28.9062 23.125C28.2677 23.125 27.75 23.6427 27.75 24.2812C27.75 24.9198 28.2677 25.4375 28.9062 25.4375C29.5448 25.4375 30.0625 24.9198 30.0625 24.2812ZM21.9688 23.125C22.6073 23.125 23.125 23.6427 23.125 24.2812C23.125 24.9198 22.6073 25.4375 21.9688 25.4375C21.3302 25.4375 20.8125 24.9198 20.8125 24.2812C20.8125 23.6427 21.3302 23.125 21.9688 23.125ZM16.1875 24.2812C16.1875 23.6427 15.6698 23.125 15.0312 23.125C14.3927 23.125 13.875 23.6427 13.875 24.2812C13.875 24.9198 14.3927 25.4375 15.0312 25.4375C15.6698 25.4375 16.1875 24.9198 16.1875 24.2812ZM8.09375 23.125C8.73227 23.125 9.25 23.6427 9.25 24.2812C9.25 24.9198 8.73227 25.4375 8.09375 25.4375C7.45523 25.4375 6.9375 24.9198 6.9375 24.2812C6.9375 23.6427 7.45523 23.125 8.09375 23.125ZM30.0625 19.6562C30.0625 19.0177 29.5448 18.5 28.9062 18.5C28.2677 18.5 27.75 19.0177 27.75 19.6562C27.75 20.2948 28.2677 20.8125 28.9062 20.8125C29.5448 20.8125 30.0625 20.2948 30.0625 19.6562ZM21.9688 18.5C22.6073 18.5 23.125 19.0177 23.125 19.6562C23.125 20.2948 22.6073 20.8125 21.9688 20.8125C21.3302 20.8125 20.8125 20.2948 20.8125 19.6562C20.8125 19.0177 21.3302 18.5 21.9688 18.5ZM16.1875 19.6562C16.1875 19.0177 15.6698 18.5 15.0312 18.5C14.3927 18.5 13.875 19.0177 13.875 19.6562C13.875 20.2948 14.3927 20.8125 15.0312 20.8125C15.6698 20.8125 16.1875 20.2948 16.1875 19.6562ZM8.09375 18.5C8.73227 18.5 9.25 19.0177 9.25 19.6562C9.25 20.2948 8.73227 20.8125 8.09375 20.8125C7.45523 20.8125 6.9375 20.2948 6.9375 19.6562C6.9375 19.0177 7.45523 18.5 8.09375 18.5ZM4.625 4.625H11.5625V5.78125C11.5625 6.41977 12.0802 6.9375 12.7188 6.9375C13.3573 6.9375 13.875 6.41977 13.875 5.78125V4.625H23.125V5.78125C23.125 6.41977 23.6427 6.9375 24.2812 6.9375C24.9198 6.9375 25.4375 6.41977 25.4375 5.78125V4.625H32.375C33.652 4.625 34.6875 5.66047 34.6875 6.9375V11.5625H2.3125V6.9375C2.3125 5.66047 3.34797 4.625 4.625 4.625Z" fill="black"/>
</svg>
