<svg width="85" height="99" viewBox="0 0 85 99" fill="none" xmlns="http://www.w3.org/2000/svg">
<path id="Combined Shape" fill-rule="evenodd" clip-rule="evenodd" d="M53.8402 92.1035H8.28319L8.28294 92.1017C3.74701 92.1017 0 88.3387 0 83.783V8.51718C0 3.7632 3.74701 0 8.48053 0H59.7567C64.4902 0 68.2373 3.7632 68.2373 8.51718L68.2365 43.3775C77.7027 45.1615 85 53.4799 85 63.5812C85 71.9002 80.07 79.2291 72.9701 82.3981L75.5339 94.6784C75.7306 95.6683 75.3364 96.8567 74.7448 97.6491C73.5616 98.8374 71.9844 99.2333 70.4063 98.6391L64.2929 95.866L58.3762 98.6391C56.7989 99.4316 55.0234 98.8374 54.0377 97.6491C52.842 96.1484 53.2315 94.6481 53.5764 93.3197C53.6867 92.8949 53.7924 92.4876 53.8402 92.1035ZM71.3917 94.8769L69.0253 83.7848C67.6454 84.1807 66.0674 84.1807 64.8835 84.1807C63.4351 84.3425 61.9868 84.1087 60.7527 83.9094C60.4745 83.8645 60.2072 83.8213 59.9533 83.7848L57.3894 94.8769L63.5028 92.1037C63.8977 91.9054 64.4893 91.9054 65.0809 92.1037L71.3917 94.8769ZM80.8586 63.7798C80.8586 72.891 73.5612 80.4174 64.4899 80.4174C55.4179 80.4174 47.9239 73.0886 47.9239 63.7798C47.9239 54.6685 55.4179 47.1421 64.4899 47.1421C73.5612 47.1421 80.8586 54.6685 80.8586 63.7798ZM8.28282 3.9633C5.91661 3.9633 3.94431 5.94413 3.94431 8.51902H3.74724V83.7848C3.74724 86.3597 5.71955 88.3405 8.28335 88.3405H54.8257L56.2063 82.5967C36.091 73.6821 42.4016 43.379 64.0951 43.1807V8.51902C64.0951 5.94413 62.1228 3.9633 59.559 3.9633H8.28282ZM64 76C57.4001 76 52 70.5999 52 64C52 57.4001 57.4001 52 64 52C70.5999 52 76 57.4001 76 64C76 70.5999 70.5999 76 64 76ZM63.8004 72C68.2008 72 71.8004 68.3996 71.8004 64C71.8004 59.6004 68.2 56 63.8004 56C59.4 56 55.8004 59.6004 55.8004 64C55.8004 68.4004 59.4007 72 63.8004 72ZM50.9998 18H11.0002C10.0004 18 9.00073 16.9997 9 15.5C9 14.0001 9.80027 13 11.0002 13H50.9998C52.1998 13 53 14.0001 53 15.5C53 16.9999 52.1997 18 50.9998 18ZM11.0002 31H50.9998C52.1997 31 53 29.9999 53 28.5C53 27.0003 52.1998 26 50.9998 26H11.0002C9.80027 26 9 27.0001 9 28.5C9.00073 29.9997 10.0004 31 11.0002 31ZM50.9998 43H11.0002C10.0004 43 9.00073 41.9997 9 40.5C9 39.0001 9.80027 38 11.0002 38H50.9998C52.1998 38 53 39.0003 53 40.5C53 41.9999 52.1997 43 50.9998 43Z" fill="black"/>
</svg>
