<svg width="21" height="21" viewBox="0 0 21 21" fill="none" xmlns="http://www.w3.org/2000/svg">
<path fill-rule="evenodd" clip-rule="evenodd" d="M19.3065 1.73589C18.2056 0.592742 16.6391 0 14.8609 0H6.13911C2.45565 0 0 2.45565 0 6.13911V14.8185C0 16.6391 0.592742 18.2056 1.77823 19.3488C2.92137 20.4496 4.44556 21 6.18145 21H14.8185C16.6391 21 18.1633 20.4073 19.2641 19.3488C20.4073 18.248 21 16.6815 21 14.8609V6.13911C21 4.36089 20.4073 2.83669 19.3065 1.73589ZM19.1371 14.8609C19.1371 16.1734 18.6714 17.2319 17.9093 17.9516C17.1472 18.6714 16.0887 19.0524 14.8185 19.0524H6.18145C4.91129 19.0524 3.85282 18.6714 3.09073 17.9516C2.32863 17.1895 1.94758 16.131 1.94758 14.8185V6.13911C1.94758 4.86895 2.32863 3.81048 3.09073 3.04839C3.81048 2.32863 4.91129 1.94758 6.18145 1.94758H14.9032C16.1734 1.94758 17.2319 2.32863 17.994 3.09073C18.7137 3.85282 19.1371 4.91129 19.1371 6.13911V14.8609ZM17 5C17 5.55228 16.5523 6 16 6C15.4477 6 15 5.55228 15 5C15 4.44772 15.4477 4 16 4C16.5523 4 17 4.44772 17 5ZM5 10.5C5 7.44922 7.49219 5 10.5 5C13.5078 5 16 7.49219 16 10.5C16 13.5078 13.5508 16 10.5 16C7.44922 16 5 13.5508 5 10.5ZM6.97656 10.5C6.97656 12.4336 8.56641 14.0234 10.5 14.0234C12.4336 14.0234 14.0234 12.4336 14.0234 10.5C14.0234 8.56641 12.4336 6.97656 10.5 6.97656C8.56641 6.97656 6.97656 8.56641 6.97656 10.5Z" fill="white"/>
</svg>
