<svg width="19" height="19" viewBox="0 0 19 19" fill="none" xmlns="http://www.w3.org/2000/svg">
<path fill-rule="evenodd" clip-rule="evenodd" d="M2 4C3.10457 4 4 3.10457 4 2C4 0.895431 3.10457 0 2 0C0.895431 0 0 0.895431 0 2C0 3.10457 0.895431 4 2 4ZM4.07143 19H0V5H4.07143V19ZM19 19H14.9286V11.5212C14.9286 9.5724 14.2554 8.6022 12.9214 8.6022C11.8641 8.6022 11.1937 9.1454 10.8571 10.2332V19H6.78571C6.78571 19 6.84 6.4 6.78571 5H9.99943L10.2478 7.8H10.3319C11.1666 6.4 12.5006 5.4508 14.3301 5.4508C15.7211 5.4508 16.8462 5.8498 17.7053 6.8522C18.5698 7.856 19 9.2028 19 11.0942V19Z" fill="white"/>
</svg>
