<svg width="27" height="14" viewBox="0 0 27 14" fill="none" xmlns="http://www.w3.org/2000/svg">
<path fill-rule="evenodd" clip-rule="evenodd" d="M13.5503 0C8.485 0 3.74251 2.32255 0.161359 6.54207C0.0643639 6.67281 0 6.83641 0 7C0 7.16359 0.0645886 7.3272 0.193541 7.45793C3.77469 11.6774 8.5173 14 13.5503 14C18.4864 14 23.1968 11.6775 26.8425 7.42522C27.0684 7.16351 27.036 6.80367 26.8425 6.57481C23.1967 2.32241 18.4542 3.50468e-05 13.5503 3.50468e-05L13.5503 0ZM13.4858 12.5608C10.453 12.5608 8.00117 10.0748 8.00117 7.00007C8.00117 3.9253 10.4531 1.43937 13.4858 1.43937C16.5184 1.43937 18.9703 3.9253 18.9703 7.00007C18.9703 10.0748 16.5184 12.5608 13.4858 12.5608ZM8.74315 2.09352C6.06535 3.00941 3.58102 4.67752 1.48406 7.00007C3.58102 9.32262 6.06535 10.9907 8.74315 11.9066C7.48491 10.6636 6.71055 8.92992 6.71055 7.00007C6.71055 5.07022 7.48491 3.33657 8.74315 2.09352ZM18.2284 11.9066C19.4866 10.6636 20.261 8.92992 20.261 7.00007C20.261 5.07022 19.4866 3.33657 18.2284 2.09352C20.874 3.00941 23.3581 4.67752 25.4874 7.00007C23.3581 9.35521 20.8738 11.0234 18.2284 11.9066ZM14.4546 4.27262C14.4546 4.8135 14.8683 5.22719 15.4091 5.22719V5.2272C15.8546 5.2272 16.268 4.90891 16.3317 4.4637C16.7454 5.0363 17 5.73633 17 6.5C17 8.4409 15.4409 10 13.5 10C11.5591 10 10 8.4409 10 6.5C10 4.5591 11.5592 3 13.5 3C14.0726 3 14.6137 3.12717 15.0909 3.38174C14.7091 3.50895 14.4546 3.85893 14.4546 4.27262Z" fill="black"/>
</svg>
