<svg width="102" height="97" viewBox="0 0 102 97" fill="none" xmlns="http://www.w3.org/2000/svg">
<path id="Combined Shape" fill-rule="evenodd" clip-rule="evenodd" d="M99.1674 57.2869C99.1674 56.5035 99.8008 55.8702 100.584 55.8702L100.583 55.868C101.367 55.868 102 56.5013 102 57.2847V74.4269C102 75.2104 101.367 75.8437 100.583 75.8437H70.2827V87.2023C70.2827 88.1566 70.5179 89.1041 70.9616 89.9399C72.2741 92.5166 75.2566 94.1665 78.574 94.1665C79.3577 94.1665 79.9911 94.7998 79.9911 95.5832C79.9911 96.3667 79.3577 97 78.574 97H23.423C22.6403 97 22.0059 96.3667 22.0059 95.5832C22.0059 94.7998 22.6413 94.1665 23.423 94.1665C26.7424 94.1665 29.726 92.5167 31.0255 89.9627C31.0542 89.9054 31.0878 89.8501 31.1233 89.7987C31.5117 88.9835 31.7173 88.0904 31.7173 87.2022V75.8436H1.41713C0.634439 75.8436 0 75.2103 0 74.4268V7.35743C0 3.30084 3.30956 0.000987906 7.37505 0.000987906L43.3269 0C44.1096 0 44.744 0.635285 44.744 1.41676C44.744 2.19924 44.1086 2.83352 43.3269 2.83352H7.37758C4.87345 2.83352 2.83572 4.86287 2.83572 7.3575V55.86L13.9701 55.861V15.5202C13.9701 14.7377 14.6056 14.1035 15.3873 14.1035L36.9642 14.1025C37.7469 14.1025 38.3813 14.7378 38.3813 15.5192C38.3813 16.3017 37.7459 16.936 36.9642 16.936H16.8042V55.8604H43.3273C44.11 55.8604 44.7444 56.4937 44.7444 57.2772C44.7444 58.0606 44.109 58.6939 43.3273 58.6939H2.83436V73.0125H33.1117C33.1206 73.0125 33.1266 73.0086 33.1335 73.0086C33.1356 73.0086 33.1376 73.0088 33.1396 73.0092L33.1451 73.0106C33.1473 73.0112 33.1495 73.0118 33.1516 73.0122C33.1528 73.0124 33.154 73.0125 33.1552 73.0125H68.844L68.8465 73.0124L68.8496 73.0119L68.8524 73.0113L68.8556 73.0104L68.8606 73.0092C68.8623 73.0088 68.864 73.0086 68.8657 73.0086C68.8736 73.0086 68.8805 73.0125 68.8875 73.0125H99.1674V57.2869ZM33.0775 92.0215C32.5676 92.8208 31.9411 93.538 31.2157 94.1674H70.7919C70.0675 93.537 69.44 92.8188 68.9301 92.0215H68.9004C68.8955 92.0215 68.8908 92.023 68.8861 92.0244C68.8814 92.0259 68.8767 92.0274 68.8718 92.0274C68.8668 92.0274 68.8621 92.0259 68.8575 92.0245L68.8574 92.0244C68.8527 92.023 68.848 92.0215 68.8431 92.0215H33.1645C33.1608 92.0215 33.1573 92.0223 33.1538 92.0233L33.1502 92.0245C33.1473 92.0253 33.1445 92.0262 33.1416 92.0268C33.1397 92.0272 33.1378 92.0274 33.1358 92.0274L33.1332 92.0273C33.1319 92.0272 33.1307 92.0269 33.1295 92.0267C33.1287 92.0265 33.1278 92.0263 33.127 92.0261L33.1215 92.0245C33.1168 92.023 33.1121 92.0215 33.1072 92.0215H33.0775ZM67.4509 89.1899H34.5526V75.8453H67.4509V89.1899ZM75 54C89.8874 54 102 41.8878 102 27C102 12.1112 89.8869 0 75 0C60.1131 0 48 12.1122 48 27C48 41.8888 60.1141 54 75 54ZM75 2.83079C88.3265 2.83079 99.1667 13.673 99.1667 26.9997C99.1667 40.3265 88.3265 51.1677 74.999 51.1677C61.6725 51.1677 50.8313 40.3265 50.8313 26.9997C50.8323 13.673 61.6745 2.83079 75 2.83079ZM69.418 14.8005H80.304C82.5253 14.8005 84.3326 16.5861 84.3326 18.7819V31.2245L81.8465 28.7678C81.2922 28.2198 80.397 28.2198 79.8436 28.7678C79.2893 29.3139 79.2893 30.2008 79.8436 30.7478L84.7416 35.5897C84.7934 35.641 84.853 35.6745 84.9132 35.7084C84.9391 35.723 84.9651 35.7377 84.9906 35.7538C85.0154 35.7698 85.0388 35.7874 85.0621 35.8049L85.0621 35.805C85.1058 35.8378 85.1489 35.8702 85.1991 35.8906C85.373 35.9619 85.5578 36 85.7436 36H85.7465H85.7475C85.7691 36 85.7892 35.9942 85.8091 35.9884C85.8128 35.9874 85.8164 35.9863 85.8201 35.9853C85.833 35.9817 85.8459 35.9786 85.8592 35.9775C86.0034 35.9668 86.1467 35.9482 86.2831 35.8935C86.4649 35.8203 86.624 35.7128 86.7594 35.5761L91.5843 30.8064C92.1386 30.2584 92.1386 29.3734 91.5843 28.8264C91.0299 28.2784 90.1347 28.2784 89.5813 28.8264L87.1644 31.2157V18.7819C87.1644 15.0427 84.0864 12 80.303 12H69.417C68.6334 12 68 12.6271 68 13.4007C68 14.1734 68.6344 14.8005 69.4179 14.8005L69.418 14.8005ZM60.411 24.2508C60.1353 24.5243 59.774 24.661 59.4127 24.661L59.4126 24.661C59.0512 24.661 58.6899 24.5233 58.4142 24.2488C57.8619 23.7018 57.8619 22.815 58.4142 22.269L63.3172 17.4078C63.7347 16.9937 64.3491 16.896 64.861 17.1099C64.9719 17.1564 65.0663 17.2308 65.1608 17.3053C65.1695 17.3121 65.1782 17.319 65.1869 17.3258C65.2041 17.3391 65.223 17.3496 65.2417 17.3601C65.2669 17.3741 65.292 17.3881 65.3129 17.4088L70.1461 22.2037C70.6984 22.7507 70.6984 23.6375 70.1461 24.1835C69.8705 24.457 69.5091 24.5938 69.1478 24.5938C68.7865 24.5938 68.4252 24.457 68.1495 24.1835L65.7304 21.7808V34.2175C65.7304 36.4132 67.5302 38.1987 69.7415 38.1987H80.5882C81.3689 38.1987 82 38.8268 82 39.5993C82 40.3729 81.3689 41 80.5882 41H69.7415C65.9737 41 62.9078 37.9575 62.9078 34.2185V21.7748L60.411 24.2508Z" fill="black"/>
</svg>
