<svg width="21" height="20" viewBox="0 0 21 20" fill="none" xmlns="http://www.w3.org/2000/svg">
<g id="Group">
<path id="Path" d="M0.25918 13.0802L0.0013191 16.4877C-0.00894978 16.6264 0.0410631 16.7627 0.139949 16.8602C0.229708 16.95 0.351217 17 0.476153 17C0.488704 17 0.499924 17 0.512474 16.9989L3.92247 16.741C4.03599 16.733 4.14286 16.683 4.22349 16.6024L16.8602 3.96294C17.0466 3.7766 17.0466 3.47557 16.8602 3.28942L13.7104 0.13976C13.524 -0.0465868 13.223 -0.0465868 13.0368 0.13976L0.39669 12.7792C0.316064 12.8598 0.267188 12.9667 0.259204 13.0802L0.25918 13.0802Z" fill="black"/>
<path id="Path_2" d="M0 19.5C0 19.7769 0.236241 20 0.526545 20H20.4735C20.765 20 21 19.7757 21 19.5C21 19.2231 20.7638 19 20.4735 19H0.526545C0.234975 19 0 19.2243 0 19.5Z" fill="black"/>
</g>
</svg>
