<svg width="111" height="101" viewBox="0 0 111 101" fill="none" xmlns="http://www.w3.org/2000/svg">
<path id="Combined Shape" fill-rule="evenodd" clip-rule="evenodd" d="M85.3937 25.6071C85.5275 25.7409 85.6635 25.8719 85.8017 26H27.9829C27.8973 25.4313 27.4902 25 27.0001 25C26.51 25 26.1023 25.4313 26.0166 26H2.51759V11.869C2.52357 11.6415 2.70688 11.4584 2.93474 11.4524H51.7725C52.4501 11.4524 53 10.9033 53 10.2258C53 9.54916 52.45 9 51.7725 9H2.93474C1.31402 9 0 10.3122 0 11.9306V26.9997V90.0694C0 91.6878 1.31406 93 2.93474 93H13.7167V92.9389C13.8764 92.9389 14.029 92.9085 14.1689 92.8531C14.419 93.2234 14.6834 93.5858 14.9619 93.9397C18.4669 98.394 23.8203 100.996 29.4878 101L29.4878 101H30.4067C33.2456 100.844 36.0093 100.027 38.4776 98.6155C39.0908 98.2725 39.3108 97.4974 38.9678 96.8834C38.6248 96.2702 37.8497 96.0502 37.2357 96.3932C35.0912 97.6013 32.6923 98.2855 30.2326 98.3921C25.3012 98.6076 20.5465 96.529 17.3549 92.7625C14.1633 88.9969 12.8936 83.9657 13.9148 79.1357C14.9366 74.3065 18.1351 70.2204 22.5781 68.069C23.8127 67.4712 25.105 67.0414 26.4224 66.7795C26.5855 66.9184 26.7849 67 27.0001 67C27.2707 67 27.5295 66.8685 27.7178 66.6357C27.7346 66.615 27.7507 66.5935 27.7661 66.5715C30.7741 66.2362 33.8545 66.7586 36.6328 68.1366C37.1053 68.3709 37.5633 68.6273 38.0058 68.9041C38.002 68.9358 38 68.9679 38 69.0004C38 69.5521 38.5723 70 39.2782 70H39.5465C42.427 72.318 44.4443 75.5915 45.1888 79.2864C45.9708 83.1669 45.278 87.163 43.3087 90.5202H43.2473C42.5584 90.5202 42 91.0754 42 91.7604C42 91.9451 42.0406 92.1204 42.1135 92.2778C41.9539 92.4818 41.789 92.6824 41.6188 92.8795C41.3884 93.1324 41.2723 93.4684 41.2983 93.8088C41.3243 94.15 41.4897 94.4644 41.7547 94.6801C42.0068 94.9053 42.3402 95.0187 42.678 94.9927C43.0157 94.9676 43.3275 94.8048 43.5432 94.5432C43.9685 94.0472 44.365 93.5318 44.7318 92.9997H101.07L101.07 93C102.693 92.9661 103.993 91.6517 104 90.037V27.6834C104.935 27.0933 105.809 26.3973 106.603 25.6029C109.415 22.7907 110.997 18.9773 111 15.0004C111 11.0218 109.419 7.20669 106.606 4.39374C103.793 1.58071 99.9782 0 95.9996 0C92.0218 0 88.2067 1.5808 85.3937 4.39374C84.0547 5.73234 82.9951 7.29788 82.2522 9H65.217C64.5449 9 64 9.44769 64 10C64 10.5523 64.5449 11 65.217 11H81.5431C81.1857 12.2917 81 13.6365 81 15.0004C81 18.9782 82.5799 22.7933 85.3937 25.6071ZM26 28H2.51759V90.0691C2.51759 90.2992 2.70432 90.4856 2.93474 90.4856H12.8127C10.994 86.6853 10.5091 82.3355 11.5157 78.1607C12.8452 72.6507 16.6274 68.0545 21.7778 65.6884C23.1398 65.0629 24.5577 64.6116 26 64.3339V45.2007C26 44.5376 26.4477 44 27.0001 44C27.5525 44 27.9995 44.5376 27.9995 45.2007V64.0609C31.386 63.7856 34.8261 64.4445 37.9249 66.0296C39.0186 66.589 40.0436 67.2505 40.9895 68H64.7218C65.4277 68 66 68.4479 66 69.0004C66 69.5521 65.4277 70 64.7218 70H43.1383C45.4056 72.4741 46.9863 75.55 47.6509 78.9236C48.4322 82.8893 47.8865 86.954 46.1711 90.5202H101.07C101.305 90.5202 101.499 90.3334 101.506 90.099V28.9491C99.7695 29.6355 97.9034 29.9984 95.9998 30H95.9996C93.2744 30 90.6257 29.2585 88.3232 27.887C88.1492 27.9592 87.9514 28 87.7417 28H27.9995V38.7395C28.0079 39.0706 27.9061 39.3915 27.7178 39.6287C27.5295 39.866 27.2707 40 27.0001 40L27.0001 40C26.4477 40 26 39.4521 26 38.7762V28ZM87.2338 6.18551C86.2515 7.16819 85.4509 8.29867 84.854 9.52466C84.9471 9.66604 85 9.82794 85 10C85 10.4071 84.704 10.7574 84.2791 10.9134C83.8355 12.2006 83.6029 13.564 83.6029 14.9513C83.6029 18.2391 84.9095 21.3927 87.2338 23.7171C89.559 26.0424 92.7118 27.348 95.9996 27.348C99.288 27.348 102.441 26.0423 104.766 23.7171C107.091 21.3927 108.396 18.2391 108.396 14.9513C108.396 11.6635 107.091 8.51077 104.766 6.18551C102.441 3.86113 99.2882 2.5546 95.9996 2.5546C92.7118 2.5546 89.559 3.86119 87.2338 6.18551ZM11.9996 19C13.1042 19 14 18.1042 14 16.9996C14 15.895 13.1042 15 11.9996 15C10.8958 15 10 15.895 10 16.9996C10 18.1042 10.8958 19 11.9996 19ZM21 16.9996C21 18.1042 20.1042 19 18.9996 19C17.8958 19 17 18.1042 17 16.9996C17 15.895 17.8958 15 18.9996 15C20.1042 15 21 15.895 21 16.9996ZM27.0004 19C28.105 19 29 18.1042 29 16.9996C29 15.895 28.105 15 27.0004 15C25.8958 15 25 15.895 25 16.9996C25 18.1042 25.8958 19 27.0004 19ZM7.27641 35H19.7245C20.4287 35 21 34.5522 21 33.9997C21 33.4478 20.4287 33 19.7245 33H7.27641C6.57134 33 6 33.4478 6 33.9997C6 34.5522 6.57134 35 7.27641 35ZM17.68 50H7.32003C6.59115 50 6 49.5518 6 49C6 48.4475 6.59115 48 7.32003 48H17.68C18.4089 48 19 48.4475 19 49C19 49.5518 18.4089 50 17.68 50ZM7.27641 57H19.7245C20.4287 57 21 56.5522 21 55.9997C21 55.4478 20.4287 55 19.7245 55H7.27641C6.57134 55 6 55.4478 6 55.9997C6 56.5522 6.57134 57 7.27641 57ZM13.6866 65H7.31251C6.58778 65 6 64.5518 6 64C6 63.4475 6.58778 63 7.31251 63H13.6866C14.4122 63 15 63.4475 15 64C15 64.5518 14.4122 65 13.6866 65ZM7.30811 42H13.691C14.4141 42 15 41.5522 15 40.9997C15 40.4478 14.4141 40 13.691 40H7.30811C6.58593 40 6 40.4478 6 40.9997C6 41.5522 6.58593 42 7.30811 42ZM85.7396 40H40.2595C39.5633 40 39 39.5522 39 38.9997C39 38.4478 39.5633 38 40.2595 38H85.7396C86.4358 38 87 38.4478 87 38.9997C87 39.5522 86.4358 40 85.7396 40ZM39.2258 50H56.7742C57.4512 50 58 49.5522 58 48.9997C58 48.4478 57.4512 48 56.7742 48H39.2258C38.5488 48 38 48.4479 38 48.9997C38 49.5522 38.5488 50 39.2258 50ZM75.6934 50H64.3076C63.5854 50 63 49.5522 63 48.9997C63 48.4479 63.5854 48 64.3076 48H75.6934C76.4146 48 77 48.4478 77 48.9997C77 49.5522 76.4146 50 75.6934 50ZM38 60C38 60.5518 38.5725 61 39.2792 61H88.7208C89.4267 61 90 60.5518 90 60C90 59.4475 89.4267 59 88.7208 59H39.2792C38.5725 59 38 59.4475 38 60ZM21.1173 81.3645C22.0471 81.3645 22.4936 80.7202 22.4936 79.5171V76.1986C22.3852 75.3727 22.6364 74.5402 23.1789 73.923C23.7213 73.3066 24.5002 72.9692 25.3061 73.0022H26.9885V75.2871H26.1416C25.412 75.2871 25.0591 75.8094 25.0591 76.7454V79.9181C25.0591 81.462 24.2827 82.3488 23.2823 82.5192C24.4501 82.7693 25.2314 83.9114 25.0706 85.1323V88.305C25.0706 89.2291 25.4235 89.7633 26.1531 89.7633H27V92H25.3061C23.5416 92 22.5175 90.7842 22.5175 88.8035V85.485C22.5175 84.2691 22.0472 83.6494 21.1412 83.6494H21V81.3645L21.1173 81.3645ZM35.8593 83.6496H35.9999L36 81.3649H35.8594C34.9341 81.3403 34.4885 80.7333 34.4885 79.5175V76.1991C34.5965 75.3716 34.3455 74.5364 33.8027 73.9192C33.2591 73.302 32.4801 72.9662 31.6758 73.0027H30V75.2511H30.8322C31.5703 75.2511 31.9218 75.7733 31.9218 76.7094V79.9794C31.9218 81.5232 32.6951 82.4592 33.6916 82.5805C32.5578 82.8348 31.7935 83.937 31.9218 85.1325V88.3051C31.9218 89.2284 31.5703 89.7633 30.8322 89.7633H30V92H31.7109C33.4691 92 34.4885 90.7722 34.4885 88.8036V85.4851C34.4885 84.2812 34.9569 83.6496 35.8593 83.6496ZM100.074 20.1502C100.246 20.6874 100.693 21.0302 101.178 20.9979C101.494 20.9942 101.795 20.8422 102.016 20.575L105.486 16.4532C105.816 16.0662 106.002 15.5373 105.999 14.9872C106.013 14.4417 105.84 13.9128 105.519 13.5203V13.5212L102.049 9.39945C101.599 8.86685 100.87 8.86685 100.42 9.39945C99.9702 9.93204 99.9702 10.7955 100.42 11.328L103.522 14.9872L100.42 18.6463C100.04 19.0048 99.9001 19.613 100.074 20.1502ZM90.8397 20.9998C90.5312 21.0054 90.2337 20.8611 90.0178 20.6021L86.5182 16.4651C86.1822 16.0776 85.9954 15.5467 86.0001 14.9927C85.9977 14.4406 86.1846 13.9097 86.5182 13.5212L90.0178 9.39816C90.4684 8.86728 91.1993 8.86728 91.6499 9.39816C92.1005 9.92904 92.1005 10.7892 91.6499 11.3201L88.5325 14.9928L91.6499 18.6783V18.6792C91.8736 18.929 92 19.2767 92 19.6402C92 20.0037 91.8736 20.3514 91.6499 20.6021C91.4363 20.8582 91.1443 21.0016 90.8397 20.9998L90.8397 20.9998ZM94.7994 21.9908C94.8934 22.0031 94.9882 22.0031 95.0814 21.9908C95.5756 21.9995 96.0077 21.59 96.1163 21.0105H96.1156L98.9679 8.57833C99.1078 7.91194 98.7777 7.235 98.2267 7.057C97.9505 6.95353 97.651 6.99211 97.3996 7.1631C97.1482 7.33496 96.9674 7.62433 96.8997 7.96192L94.0473 20.394C93.9613 20.7264 93.9934 21.0867 94.1362 21.3893C94.2784 21.6918 94.5188 21.9092 94.7994 21.9908ZM60.8633 11H58.1367C57.5089 11 57 10.5523 57 10C57 9.44769 57.5089 9 58.1367 9H60.8633C61.4911 9 62 9.44769 62 10C62 10.5523 61.4911 11 60.8633 11Z" fill="black"/>
</svg>
