<svg width="112" height="80" viewBox="0 0 112 80" fill="none" xmlns="http://www.w3.org/2000/svg">
<path fill-rule="evenodd" clip-rule="evenodd" d="M75.417 27.6452V10.1792H69.0518V27.6452H75.417ZM75.8015 3.47188C75.8015 5.3789 74.1921 6.94578 72.2344 6.94578C70.2756 6.94578 68.6672 5.3789 68.6672 3.47188C68.6672 1.56587 70.2756 0 72.2344 0C74.1921 0 75.8015 1.56587 75.8015 3.47188ZM17.9782 11.5613V0.891782H24.9699V28.537H17.9782V17.2076H7.88346V28.537H0.891782V0.891782H7.88346V11.5613H17.9782ZM33.4039 19.6367C33.4039 21.9689 34.8922 23.7615 37.4554 23.7615C40.0175 23.7615 41.5068 21.9689 41.5068 19.6367C41.5068 17.3776 40.0175 15.4769 37.4554 15.4769C34.8922 15.4769 33.4039 17.3776 33.4039 19.6367ZM48.1562 19.6367C48.1562 25.8775 43.1692 29.4288 37.4554 29.4288C31.7763 29.4288 26.7535 25.9135 26.7535 19.6367C26.7535 13.3609 31.7415 9.8096 37.4554 9.8096C43.1692 9.8096 48.1562 13.3609 48.1562 19.6367ZM58.1165 12.1954H58.0466V9.1701H51.7234V27.6452H58.0466V20.1917C58.0466 17.0217 58.9155 14.6085 62.4248 14.6085C63.3973 14.6085 64.2313 14.7161 65.1001 15.2217V8.91782H63.8841C61.4173 8.91782 59.3324 9.92695 58.1165 12.1954ZM110.581 19.6192H77.5851V14.2685H110.581V19.6192ZM18.7536 51.1946V56.1823H0L8.69134 44.2251H1.15451V39.2384H19.6192L10.9652 51.1946H18.7536ZM30.3201 51.4068C27.758 51.4068 26.2686 49.6142 26.2686 47.283C26.2686 45.0229 27.758 43.1232 30.3201 43.1232C32.8832 43.1232 34.3716 45.0229 34.3716 47.283C34.3716 49.6142 32.8832 51.4068 30.3201 51.4068ZM30.3201 57.0741C36.0339 57.0741 41.022 53.5227 41.022 47.283C41.022 41.0062 36.0339 37.4549 30.3201 37.4549C24.6063 37.4549 19.6192 41.0062 19.6192 47.283C19.6192 53.5588 24.6411 57.0741 30.3201 57.0741ZM50.2971 41.2802H50.37C51.8921 39.0892 53.7422 38.3466 56.317 38.3466C61.3217 38.3466 63.3165 41.4212 63.3165 45.8723V57.0741H56.7146V48.2409C56.7146 48.1148 56.7162 47.9819 56.7178 47.8436C56.7382 46.083 56.7686 43.4703 53.7422 43.4703C51.0582 43.4703 50.2971 45.4138 50.2971 47.6748V57.0741H43.6973V38.9482H50.2971V41.2802ZM68.4132 57.0741H74.8391V43.9701H78.4768V38.5551H74.8391V32.9959H68.4132V38.5551H65.1001V43.9701H68.4132V57.0741ZM85.8173 47.283C85.8173 49.6142 87.2914 51.4068 89.8309 51.4068C92.3684 51.4068 93.8435 49.6142 93.8435 47.283C93.8435 45.0229 92.3684 43.1232 89.8309 43.1232C87.2914 43.1232 85.8173 45.0229 85.8173 47.283ZM99.8796 56.4645H93.6377V54.4206H93.5688C92.4708 56.2493 90.3105 57.0741 88.2525 57.0741C83.0385 57.0741 79.3686 52.5188 79.3686 47.247C79.3686 41.9751 82.9706 37.4549 88.1835 37.4549C90.207 37.4549 92.334 38.2446 93.6377 39.8581V38.0655H99.8796V56.4645ZM111.473 57.0741H105.23V27.6452H111.473V57.0741Z" fill="white"/>
</svg>
