<svg width="112" height="114" viewBox="0 0 112 114" fill="none" xmlns="http://www.w3.org/2000/svg">
<path id="Combined Shape" fill-rule="evenodd" clip-rule="evenodd" d="M42.2876 10.6937C23.8497 15.4927 9.67991 31.0898 6.77765 50.2856C6.60736 51.3138 5.92381 52 4.89966 52C3.70404 52 2.85138 50.9718 3.02167 49.7715C6.09404 28.5184 21.9717 11.5508 42.4582 6.58037C42.6285 6.58037 42.8 6.4094 42.8 6.23724V0.410171C42.8 0.0670474 43.1417 -0.103918 43.4823 0.0670474L52.8723 7.26557C53.0426 7.43653 53.0426 7.77966 52.8723 7.95063L43.4823 15.3199C43.1406 15.4909 42.8 15.3199 42.8 14.9768V11.0375C42.8 10.8654 42.6297 10.5234 42.2879 10.6944L42.2876 10.6937ZM40.7284 75.4007C41.0139 75.7554 41.4351 75.9722 41.8885 75.9991L41.8885 75.9981C42.1593 76.0115 42.4289 75.956 42.6731 75.8372L55.6939 69.4826L68.3043 75.8193C68.8392 76.0883 69.478 76.0384 69.9647 75.6893C70.4509 75.3403 70.7048 74.7491 70.6233 74.1546V74.1541L68.6079 59.7453L78.5249 49.7037C78.9512 49.2779 79.1061 48.6492 78.9263 48.0732C78.746 47.4972 78.2609 47.0702 77.6684 46.9649H77.669L63.3994 44.4412L56.9246 31.8753C56.6499 31.3413 56.1021 31.004 55.5028 31.0001C54.9036 30.9962 54.3518 31.3267 54.0709 31.8574L47.2569 44.6737L33.3621 46.9655C32.7679 47.0585 32.275 47.4765 32.0839 48.0486C31.8922 48.6207 32.0347 49.2521 32.4525 49.6864V49.6858L42.4945 60.1392L40.3898 74.1372C40.3203 74.5877 40.4435 75.0466 40.7284 75.4007ZM55.0205 65.7226L44.084 71L45.8595 59.4393C45.9343 58.9509 45.7768 58.4553 45.4329 58.0979H45.4335L37 49.3965L48.5937 47.4903C49.0838 47.4119 49.5098 47.1124 49.7473 46.6787L49.7478 46.6782L55.4826 36L60.8797 46.3958C61.1092 46.8323 61.5285 47.1384 62.0158 47.2257L74 49.3435L65.7262 57.6569C65.3762 58.011 65.2119 58.5071 65.2823 58.9983L66.9513 70.9825L56.4408 65.7226C55.9929 65.5027 55.4678 65.5027 55.0205 65.7226ZM100.186 71.352C95.0869 87.5739 81.6604 99.9088 64.834 103.626L64.8337 103.626C64.4935 103.795 64.3239 103.457 64.3239 103.291V99.0661C64.3239 98.7279 63.9849 98.5593 63.6446 98.7279L54.1271 105.993C53.9576 106.162 53.9576 106.5 54.1271 106.669L63.6446 113.934C63.9837 114.102 64.3239 113.934 64.3239 113.596V108.188C64.3239 108.019 64.4947 107.681 64.6642 107.681C83.3592 103.964 98.3163 90.4464 103.925 72.5341C104.265 71.1834 103.415 70 102.055 70C101.205 70 100.355 70.5068 100.186 71.352ZM0.13443 71.8848L6.80886 63.2541C7.15148 62.9153 7.66482 62.9153 7.83553 63.2541L14.6806 71.8851C15.0232 72.3927 14.6806 72.9003 14.1673 72.9003H10.0596C9.71693 72.9003 9.54622 73.2391 9.71693 73.408C15.1941 88.639 28.2003 100.317 44.4588 104.04C45.3159 104.379 46 105.226 46 106.072C46 107.257 44.8014 108.273 43.6041 107.934C25.6338 103.872 11.0871 90.5021 5.6105 73.4088C5.6105 73.24 5.43978 73.07 5.26788 73.07H0.818481C0.134438 73.0688 -0.208183 72.3924 0.13443 71.8848ZM96.3496 51.3501L103.802 60.8877L103.803 60.8876C103.973 61.0587 104.311 61.0587 104.651 60.7165L111.934 51.1789C112.103 51.009 111.934 50.6681 111.595 50.6681H106.344C106.174 50.6681 106.005 50.6681 106.005 50.4982C103.126 29.0372 87.0351 11.8355 66.3712 7.06653C65.1862 6.72558 64 7.74729 64 8.94011C64 9.79195 64.677 10.6438 65.5241 10.8137C84.4948 15.242 99.2301 30.9121 102.109 50.4983C102.109 50.6694 101.939 50.8393 101.77 50.8393H96.6887C96.3496 50.8393 96.1806 51.1802 96.3496 51.3501Z" fill="black"/>
</svg>
