<svg width="112" height="112" viewBox="0 0 112 112" fill="none" xmlns="http://www.w3.org/2000/svg">
<path id="Combined Shape" fill-rule="evenodd" clip-rule="evenodd" d="M88.5161 66.8387V57.8064H94.1178C94.9581 61.9233 98.6048 65.0322 102.968 65.0322C107.948 65.0322 112 60.9806 112 56C112 51.0193 107.948 46.9677 102.968 46.9677C98.6073 46.9677 94.958 50.0767 94.1178 54.1935H88.5161V37.9355C88.5161 34.7113 86.8032 31.8968 84.2564 30.3001L91.8959 22.6605C93.3991 23.6557 95.137 24.1525 96.8766 24.1525C99.1903 24.1525 101.505 23.2726 103.264 21.5113C106.784 17.9889 106.784 12.259 103.264 8.73799C99.7419 5.21551 94.0096 5.21861 90.491 8.73799C87.4095 11.8234 87.0266 16.5992 89.3442 20.1056L80.4491 29.0008C80.3472 28.9899 80.2466 28.9762 80.1462 28.9626C79.9271 28.9328 79.7094 28.9032 79.4837 28.9032H57.8063V17.8822C61.9231 17.0419 65.0321 13.3952 65.0321 9.03225C65.0321 4.05161 60.9805 0 55.9998 0C51.0192 0 46.9676 4.05161 46.9676 9.03225C46.9676 13.3927 50.0765 17.0419 54.1934 17.8822V28.9032H32.5159C32.289 28.9032 32.07 28.9331 31.851 28.9631C31.7525 28.9766 31.654 28.99 31.5547 29.0008L22.6595 20.1056C24.9757 16.6007 24.5942 11.8234 21.5127 8.73799C17.9917 5.21551 12.2603 5.21861 8.73931 8.73799C5.21993 12.2605 5.21993 17.9903 8.73931 21.5113C10.5006 23.2726 12.8126 24.1525 15.1249 24.1525C16.8644 24.1525 18.6023 23.6541 20.1072 22.6605L27.7467 30.3001C25.1966 31.8968 23.4839 34.7113 23.4839 37.9355V54.1935H17.8822C17.0419 50.0767 13.3927 46.9677 9.03227 46.9677C4.05162 46.9677 0 51.0193 0 56C0 60.9806 4.05162 65.0322 9.03227 65.0322C13.3927 65.0322 17.042 61.9233 17.8822 57.8064H23.4839V66.8387C23.4839 71.8193 27.5355 75.8709 32.5162 75.8709H33.575L20.1065 89.3394C16.6016 87.0216 11.8218 87.4047 8.73888 90.4886C5.21949 94.0111 5.21949 99.7409 8.73888 103.262C10.5002 105.023 12.8122 105.903 15.1244 105.903C17.4381 105.903 19.7527 105.023 21.5123 103.262C24.5938 100.177 24.9767 95.4007 22.659 91.8943L38.6832 75.871H45.851L53.0768 90.3226H54.1938V94.1178C50.0769 94.9581 46.968 98.6048 46.968 102.968C46.968 107.948 51.0196 112 56.0002 112C60.9809 112 65.0325 107.948 65.0325 102.968C65.0325 98.6073 61.9235 94.9581 57.8067 94.1178V90.3226H58.9228L66.1486 75.871H73.3164L89.3414 91.896C87.0252 95.4009 87.4067 100.178 90.4882 103.264C92.2495 105.025 94.5615 105.905 96.8737 105.905C99.1875 105.905 101.502 105.025 103.262 103.264C106.781 99.7411 106.781 94.0113 103.262 90.4902C100.176 87.4048 95.3978 87.0258 91.8939 89.341L78.4254 75.8709H79.4843C84.4649 75.8709 88.5166 71.8193 88.5166 66.8387H88.5161ZM102.968 50.5806C105.956 50.5806 108.387 53.012 108.387 56C108.387 58.9879 105.956 61.4193 102.968 61.4193C99.9798 61.4193 97.5484 58.9879 97.5484 56C97.5484 53.012 99.9798 50.5806 102.968 50.5806ZM100.707 11.2929C98.592 9.17926 95.1548 9.18318 93.0428 11.2929C90.9314 13.4066 90.9314 16.8446 93.0428 18.9574C95.1581 21.0694 98.5953 21.0671 100.707 18.9574C102.819 16.8446 102.819 13.4066 100.707 11.2929ZM50.5798 9.03329C50.5798 6.04532 53.0111 3.61394 55.9991 3.61394C58.9871 3.61394 61.4185 6.04532 61.4185 9.03329C61.4185 12.0213 58.9871 14.4526 55.9991 14.4526C53.0111 14.4526 50.5798 12.0213 50.5798 9.03329ZM11.292 11.2937C9.17996 13.4066 9.17996 16.8446 11.292 18.9582C13.4073 21.0711 16.8451 21.0696 18.9565 18.9582C21.0685 16.8454 21.0685 13.4074 18.9565 11.2937C17.8999 10.2373 16.5119 9.70986 15.125 9.70986C13.738 9.70986 12.3484 10.2389 11.292 11.2937ZM9.03235 61.4212C6.04437 61.4212 3.61299 58.9898 3.61299 56.0018C3.61299 53.0139 6.04437 50.5825 9.03235 50.5825C12.0203 50.5825 14.4517 53.0139 14.4517 56.0018C14.4517 58.9898 12.0203 61.4212 9.03235 61.4212ZM11.2928 100.709C13.4081 102.823 16.8453 102.819 18.9573 100.709C21.0687 98.5952 21.0687 95.1572 18.9573 93.0444C17.9007 91.9879 16.5127 91.4605 15.1258 91.4605C13.7388 91.4605 12.3492 91.9895 11.2928 93.0444C9.18079 95.1572 9.18079 98.5952 11.2928 100.709ZM61.4203 102.968C61.4203 105.956 58.9889 108.388 56.001 108.388C53.013 108.388 50.5816 105.956 50.5816 102.968C50.5816 99.9805 53.013 97.5491 56.001 97.5491C58.9889 97.5491 61.4203 99.9805 61.4203 102.968ZM100.708 100.708C102.82 98.5952 102.82 95.1572 100.708 93.0435C98.5928 90.9307 95.155 90.9338 93.0436 93.0435C90.9316 95.1564 90.9316 98.5944 93.0436 100.708C95.1589 102.822 98.5961 102.818 100.708 100.708ZM63.9163 72.258L56.6905 86.7096H55.3107L48.0849 72.258H32.5163C29.5284 72.258 27.097 69.8266 27.097 66.8387V37.9355C27.097 34.9475 29.5284 32.5161 32.5163 32.5161H79.4841C82.4721 32.5161 84.9035 34.9475 84.9035 37.9355V66.8387C84.9035 69.8266 82.4721 72.258 79.4841 72.258H63.9163ZM82 36H31V40H82V36ZM45 43H81V47H45V43ZM42 43H31V47H42V43ZM31 50H82V54H31V50ZM82 58H31V62H82V58ZM78 65H82V69H78V65ZM75 65H31V69H75V65Z" fill="black"/>
</svg>
