<svg width="16" height="13" viewBox="0 0 16 13" fill="none" xmlns="http://www.w3.org/2000/svg">
<path id="Combined Shape" fill-rule="evenodd" clip-rule="evenodd" d="M5.98803 12.8238C6.10385 12.9413 6.25539 12.9999 6.40713 12.9999L6.40715 13C6.55878 13 6.71052 12.9414 6.82634 12.8239C7.05789 12.5892 7.05789 12.2082 6.82634 11.9736L1.92398 7H15.4035C15.7329 7 16 6.77613 16 6.5C16 6.22397 15.7329 6 15.4035 6H1.92412L6.82634 1.02659C7.05789 0.791898 7.05789 0.410919 6.82634 0.176228C6.59461 -0.0587426 6.21967 -0.0587426 5.98803 0.176228L0.173659 6.0749C0.0578949 6.19224 8.5918e-06 6.34612 0 6.5C-8.59308e-06 6.6539 0.0578777 6.80781 0.173659 6.92517L5.98803 12.8238Z" fill="black"/>
</svg>
