<svg width="25" height="25" viewBox="0 0 25 25" fill="none" xmlns="http://www.w3.org/2000/svg">
<path fill-rule="evenodd" clip-rule="evenodd" d="M24.5 12.5C24.5 5.88307 19.1169 0.5 12.5 0.5C5.88307 0.5 0.5 5.88307 0.5 12.5C0.5 15.5998 1.67124 18.5184 3.79966 20.7578L3.7961 20.7649L4.01561 20.9844C6.28237 23.2515 9.29553 24.5 12.5 24.5C15.7045 24.5 18.7176 23.2515 20.9844 20.9844L21.2039 20.7649L21.2003 20.7578C23.3288 18.5184 24.5 15.5998 24.5 12.5ZM12.5 1.35714C18.6442 1.35714 23.6429 6.35583 23.6429 12.5C23.6429 15.2841 22.6275 17.9126 20.7724 19.9636C19.1315 17.2344 15.9524 15.5 12.5 15.5C9.04756 15.5 5.86846 17.2344 4.22763 19.9636C2.37247 17.9126 1.35714 15.2841 1.35714 12.5C1.35714 6.35583 6.35583 1.35714 12.5 1.35714ZM11.8474 23.6223C11.8828 23.6251 11.9183 23.6279 11.954 23.6296C12.1352 23.6383 12.3173 23.6429 12.5 23.6429C12.6827 23.6429 12.8648 23.6383 13.046 23.6296C13.0818 23.6279 13.1172 23.6251 13.1527 23.6223C13.1766 23.6204 13.2005 23.6185 13.2245 23.617L13.2617 23.6146C13.3706 23.6077 13.4796 23.6007 13.5878 23.5904C13.6312 23.5862 13.6743 23.5808 13.7174 23.5753C13.7441 23.572 13.7709 23.5686 13.7977 23.5655C13.8162 23.5634 13.8346 23.5613 13.8531 23.5592C13.9435 23.5488 14.0339 23.5385 14.1235 23.5255C14.1726 23.5183 14.2214 23.5099 14.2702 23.5014C14.2966 23.4968 14.323 23.4922 14.3495 23.4878C14.368 23.4848 14.3865 23.4817 14.405 23.4787C14.4878 23.465 14.5706 23.4514 14.6527 23.4353C14.7058 23.425 14.7585 23.4133 14.8112 23.4015C14.8361 23.396 14.861 23.3904 14.886 23.385C14.9028 23.3813 14.9196 23.3777 14.9364 23.3741C15.0163 23.3568 15.0961 23.3396 15.1754 23.3202C15.2305 23.3067 15.2852 23.2918 15.34 23.2768C15.3639 23.2703 15.3878 23.2638 15.4117 23.2574C15.4293 23.2526 15.4469 23.2479 15.4645 23.2431C15.54 23.2229 15.6154 23.2026 15.6902 23.1803C15.7505 23.1624 15.8103 23.143 15.87 23.1236C15.8885 23.1176 15.907 23.1116 15.9254 23.1056L15.9478 23.0984C16.0314 23.0716 16.1149 23.0448 16.1975 23.0158C16.2592 22.9941 16.3203 22.971 16.3814 22.948C16.3976 22.9418 16.4139 22.9357 16.4302 22.9295L16.4334 22.9284C16.5211 22.8954 16.6085 22.8625 16.6954 22.8272C16.7602 22.8009 16.8246 22.773 16.8889 22.7451C16.901 22.7398 16.913 22.7346 16.9251 22.7294L16.9268 22.7286C17.0126 22.6914 17.0985 22.6542 17.1833 22.6148C17.2573 22.5804 17.3305 22.5444 17.4039 22.5083L17.4104 22.5051C17.4941 22.4639 17.5778 22.4225 17.6607 22.379C17.7354 22.3398 17.8094 22.2989 17.8835 22.2579C17.9654 22.2126 18.047 22.1669 18.1275 22.1195C18.2006 22.0766 18.2727 22.0324 18.3447 21.9878C18.4242 21.9386 18.5038 21.8885 18.5822 21.8372C18.6534 21.7906 18.7237 21.7429 18.7938 21.6947C18.8711 21.6415 18.9481 21.5875 19.024 21.5323C19.0935 21.482 19.1623 21.4306 19.2308 21.3785C19.305 21.3218 19.3787 21.2643 19.4517 21.2057C19.5197 21.1512 19.5871 21.0959 19.6539 21.0398C19.7252 20.9798 19.7957 20.9187 19.8656 20.8568C19.9318 20.7986 19.9973 20.7397 20.0619 20.6797C20.0793 20.6636 20.0965 20.6471 20.1136 20.6307C20.1257 20.6191 20.1378 20.6074 20.15 20.5959C18.6996 18.0108 15.734 16.3571 12.5 16.3571C9.26604 16.3571 6.30037 18.0108 4.85 20.5958C4.86222 20.6074 4.87433 20.619 4.88643 20.6306C4.90357 20.6471 4.9207 20.6635 4.93811 20.6797C5.00279 20.7396 5.06827 20.7985 5.1344 20.8568C5.20426 20.9186 5.2748 20.9798 5.34616 21.0397C5.41293 21.0959 5.4803 21.1511 5.54831 21.2057C5.62134 21.2642 5.69501 21.3218 5.76929 21.3784C5.83769 21.4305 5.90656 21.4819 5.97603 21.5322C6.05197 21.5875 6.12899 21.6415 6.20621 21.6946C6.27633 21.7428 6.34666 21.7906 6.4178 21.8371C6.49627 21.8885 6.57581 21.9385 6.65531 21.9878C6.72727 22.0324 6.79949 22.0765 6.87251 22.1194C6.95309 22.1668 7.03469 22.2125 7.1165 22.2578C7.19056 22.2989 7.26466 22.3397 7.33936 22.379C7.42224 22.4224 7.50594 22.4639 7.58964 22.5051L7.6 22.5102C7.67209 22.5456 7.74402 22.581 7.8167 22.6148C7.90207 22.6544 7.98847 22.6919 8.07491 22.7293C8.08524 22.7338 8.09556 22.7383 8.10588 22.7427C8.17194 22.7714 8.23807 22.8001 8.30467 22.8272C8.39054 22.862 8.47702 22.8946 8.56367 22.9272L8.56983 22.9295C8.58605 22.9356 8.60226 22.9417 8.61847 22.9478C8.67965 22.9709 8.74084 22.994 8.80254 23.0157C8.88316 23.044 8.96459 23.0702 9.04612 23.0964L9.0746 23.1056C9.09303 23.1115 9.11146 23.1175 9.12988 23.1235C9.18967 23.1429 9.24949 23.1623 9.3098 23.1803C9.3846 23.2025 9.4601 23.2228 9.53551 23.2431C9.55312 23.2478 9.57073 23.2526 9.58833 23.2573C9.61224 23.2637 9.63608 23.2702 9.65992 23.2767C9.71473 23.2917 9.76946 23.3066 9.8246 23.3202C9.90247 23.3392 9.98077 23.3561 10.0591 23.3731C10.0774 23.377 10.0957 23.381 10.114 23.3849C10.1391 23.3904 10.164 23.3959 10.189 23.4015C10.2416 23.4132 10.2942 23.425 10.3473 23.4353C10.4295 23.4513 10.5123 23.465 10.5951 23.4786C10.6136 23.4817 10.6321 23.4847 10.6505 23.4878C10.6769 23.4922 10.7032 23.4967 10.7295 23.5013C10.7784 23.5098 10.8273 23.5183 10.8765 23.5255C10.9656 23.5384 11.0554 23.5487 11.1452 23.5589C11.1642 23.5611 11.1833 23.5633 11.2024 23.5655C11.2291 23.5685 11.2557 23.5719 11.2823 23.5752C11.3255 23.5807 11.3687 23.5861 11.4122 23.5904C11.521 23.6007 11.6307 23.6077 11.7401 23.6147C11.7519 23.6154 11.7637 23.6162 11.7755 23.6169C11.7996 23.6185 11.8235 23.6204 11.8474 23.6223Z" fill="white"/>
<path d="M3.79966 20.7578L4.24687 20.9814L4.40376 20.6676L4.16207 20.4133L3.79966 20.7578ZM3.7961 20.7649L3.34889 20.5413L3.18772 20.8636L3.44255 21.1184L3.7961 20.7649ZM4.01561 20.9844L4.3692 20.6309L4.36917 20.6308L4.01561 20.9844ZM20.9844 20.9844L20.6308 20.6308L20.6308 20.6309L20.9844 20.9844ZM21.2039 20.7649L21.5575 21.1184L21.8123 20.8636L21.6511 20.5413L21.2039 20.7649ZM21.2003 20.7578L20.8379 20.4133L20.5962 20.6676L20.7531 20.9814L21.2003 20.7578ZM20.7724 19.9636L20.3439 20.2212L20.6911 20.7988L21.1432 20.299L20.7724 19.9636ZM4.22763 19.9636L3.85682 20.299L4.3089 20.7988L4.65615 20.2212L4.22763 19.9636ZM11.954 23.6296L11.978 23.1301L11.9777 23.1301L11.954 23.6296ZM11.8474 23.6223L11.8079 24.1207L11.8079 24.1207L11.8474 23.6223ZM13.046 23.6296L13.0224 23.1302L13.0221 23.1302L13.046 23.6296ZM13.1527 23.6223L13.1133 23.1239L13.1133 23.1239L13.1527 23.6223ZM13.2245 23.617L13.1927 23.118L13.1922 23.118L13.2245 23.617ZM13.2617 23.6146L13.23 23.1156L13.2299 23.1156L13.2617 23.6146ZM13.5878 23.5904L13.6354 24.0881L13.6361 24.0881L13.5878 23.5904ZM13.7174 23.5753L13.6549 23.0792L13.6549 23.0792L13.7174 23.5753ZM13.7977 23.5655L13.8547 24.0622L13.855 24.0622L13.7977 23.5655ZM13.8531 23.5592L13.9098 24.0559L13.9098 24.0559L13.8531 23.5592ZM14.1235 23.5255L14.1954 24.0203L14.196 24.0202L14.1235 23.5255ZM14.2702 23.5014L14.3557 23.994L14.3557 23.994L14.2702 23.5014ZM14.3495 23.4878L14.4312 23.9811L14.4315 23.9811L14.3495 23.4878ZM14.405 23.4787L14.3237 22.9853H14.3237L14.405 23.4787ZM14.6527 23.4353L14.5576 22.9444L14.5566 22.9446L14.6527 23.4353ZM14.8112 23.4015L14.92 23.8895L14.92 23.8895L14.8112 23.4015ZM14.886 23.385L14.9918 23.8737L14.9922 23.8736L14.886 23.385ZM14.9364 23.3741L14.8308 22.8854L14.8308 22.8854L14.9364 23.3741ZM15.1754 23.3202L15.294 23.806L15.2949 23.8058L15.1754 23.3202ZM15.34 23.2768L15.2084 22.7944L15.2084 22.7944L15.34 23.2768ZM15.4117 23.2574L15.5411 23.7403L15.5422 23.74L15.4117 23.2574ZM15.4645 23.2431L15.3348 22.7603L15.3348 22.7603L15.4645 23.2431ZM15.6902 23.1803L15.8327 23.6596L15.8331 23.6595L15.6902 23.1803ZM15.87 23.1236L16.0243 23.5992L16.0244 23.5992L15.87 23.1236ZM15.9254 23.1056L15.7724 22.6296L15.7722 22.6297L15.9254 23.1056ZM15.9478 23.0984L15.7949 22.6224L15.7948 22.6224L15.9478 23.0984ZM16.1975 23.0158L16.3631 23.4876L16.3632 23.4875L16.1975 23.0158ZM16.3814 22.948L16.558 23.4157L16.558 23.4157L16.3814 22.948ZM16.4302 22.9295L16.6061 23.3976L16.6061 23.3976L16.4302 22.9295ZM16.4334 22.9284L16.6093 23.3964L16.6094 23.3963L16.4334 22.9284ZM16.6954 22.8272L16.8835 23.2905L16.8836 23.2904L16.6954 22.8272ZM16.8889 22.7451L17.0878 23.2038L17.0878 23.2038L16.8889 22.7451ZM16.9251 22.7294L17.1237 23.1882L17.1238 23.1882L16.9251 22.7294ZM16.9268 22.7286L17.1255 23.1875L17.1257 23.1874L16.9268 22.7286ZM17.1833 22.6148L17.3939 23.0683L17.3941 23.0682L17.1833 22.6148ZM17.4039 22.5083L17.1833 22.0596L17.1833 22.0596L17.4039 22.5083ZM17.4104 22.5051L17.631 22.9538L17.6313 22.9537L17.4104 22.5051ZM17.6607 22.379L17.8927 22.822L17.8931 22.8217L17.6607 22.379ZM17.8835 22.2579L18.1257 22.6953L18.1257 22.6953L17.8835 22.2579ZM18.1275 22.1195L17.8743 21.6883L17.874 21.6885L18.1275 22.1195ZM18.3447 21.9878L18.6079 22.413L18.6082 22.4128L18.3447 21.9878ZM18.5822 21.8372L18.3086 21.4187L18.3083 21.4189L18.5822 21.8372ZM18.7938 21.6947L19.0771 22.1066L19.0773 22.1066L18.7938 21.6947ZM19.024 21.5323L18.7307 21.1273L18.7299 21.1279L19.024 21.5323ZM19.2308 21.3785L19.5337 21.7763L19.5339 21.7761L19.2308 21.3785ZM19.4517 21.2057L19.139 20.8156L19.1388 20.8157L19.4517 21.2057ZM19.6539 21.0398L19.3322 20.6569L19.332 20.6572L19.6539 21.0398ZM19.8656 20.8568L19.535 20.4817L19.5343 20.4824L19.8656 20.8568ZM20.0619 20.6797L19.7221 20.313L19.722 20.3131L20.0619 20.6797ZM20.1136 20.6307L19.7672 20.2701L19.7672 20.2701L20.1136 20.6307ZM20.15 20.5959L20.4931 20.9596L20.7771 20.6917L20.5861 20.3512L20.15 20.5959ZM4.85 20.5958L4.41395 20.3512L4.22292 20.6917L4.50689 20.9595L4.85 20.5958ZM4.88643 20.6306L4.54006 20.9912L4.54009 20.9912L4.88643 20.6306ZM4.93811 20.6797L5.27805 20.313L5.2779 20.3129L4.93811 20.6797ZM5.1344 20.8568L5.46582 20.4824L5.46501 20.4817L5.1344 20.8568ZM5.34616 21.0397L5.66808 20.6571L5.66781 20.6569L5.34616 21.0397ZM5.54831 21.2057L5.86119 20.8156L5.86102 20.8155L5.54831 21.2057ZM5.76929 21.3784L5.46618 21.7761L5.46626 21.7761L5.76929 21.3784ZM5.97603 21.5322L6.27015 21.1279L6.26931 21.1273L5.97603 21.5322ZM6.20621 21.6946L5.92278 22.1065L5.92291 22.1066L6.20621 21.6946ZM6.4178 21.8371L6.69171 21.4188L6.69153 21.4187L6.4178 21.8371ZM6.65531 21.9878L6.39186 22.4128L6.39203 22.4129L6.65531 21.9878ZM6.87251 22.1194L7.12605 21.6885L7.12577 21.6883L6.87251 22.1194ZM7.1165 22.2578L7.35874 21.8204L7.3587 21.8204L7.1165 22.2578ZM7.33936 22.379L7.10676 22.8216L7.10736 22.8219L7.33936 22.379ZM7.58964 22.5051L7.36871 22.9536L7.36902 22.9538L7.58964 22.5051ZM7.6 22.5102L7.82067 22.0615L7.82062 22.0615L7.6 22.5102ZM7.8167 22.6148L8.02728 22.1613L8.02726 22.1613L7.8167 22.6148ZM8.07491 22.7293L7.87612 23.1881L7.87618 23.1881L8.07491 22.7293ZM8.10588 22.7427L7.90681 23.2014L7.90685 23.2014L8.10588 22.7427ZM8.30467 22.8272L8.1165 23.2904L8.11653 23.2904L8.30467 22.8272ZM8.56367 22.9272L8.7398 22.4592L8.73977 22.4592L8.56367 22.9272ZM8.56983 22.9295L8.39369 23.3974L8.39397 23.3976L8.56983 22.9295ZM8.61847 22.9478L8.44184 23.4156L8.44185 23.4156L8.61847 22.9478ZM8.80254 23.0157L8.63677 23.4874L8.63697 23.4875L8.80254 23.0157ZM9.04612 23.0964L9.19926 22.6205L9.19921 22.6204L9.04612 23.0964ZM9.0746 23.1056L9.22789 22.6297L9.22775 22.6296L9.0746 23.1056ZM9.12988 23.1235L9.28424 22.6479L9.28423 22.6479L9.12988 23.1235ZM9.3098 23.1803L9.16691 23.6594L9.16733 23.6596L9.3098 23.1803ZM9.53551 23.2431L9.40573 23.726L9.40574 23.726L9.53551 23.2431ZM9.58833 23.2573L9.45789 23.74L9.45898 23.7403L9.58833 23.2573ZM9.65992 23.2767L9.52827 23.7591L9.52828 23.7591L9.65992 23.2767ZM9.8246 23.3202L9.70519 23.8057L9.70603 23.8059L9.8246 23.3202ZM10.0591 23.3731L9.95351 23.8618L9.95353 23.8618L10.0591 23.3731ZM10.114 23.3849L10.0077 23.8735L10.0082 23.8736L10.114 23.3849ZM10.189 23.4015L10.0802 23.8895L10.0802 23.8895L10.189 23.4015ZM10.3473 23.4353L10.4434 22.9446L10.4425 22.9444L10.3473 23.4353ZM10.5951 23.4786L10.5138 23.972H10.5138L10.5951 23.4786ZM10.6505 23.4878L10.5685 23.981L10.5689 23.9811L10.6505 23.4878ZM10.7295 23.5013L10.6441 23.9939L10.6441 23.9939L10.7295 23.5013ZM10.8765 23.5255L10.8041 24.0202L10.8045 24.0203L10.8765 23.5255ZM11.1452 23.5589L11.0886 24.0557H11.0886L11.1452 23.5589ZM11.2024 23.5655L11.1451 24.0622L11.1452 24.0622L11.2024 23.5655ZM11.2823 23.5752L11.3449 23.0792L11.3448 23.0792L11.2823 23.5752ZM11.4122 23.5904L11.364 24.088L11.3648 24.0881L11.4122 23.5904ZM11.7401 23.6147L11.7719 23.1157L11.7718 23.1157L11.7401 23.6147ZM11.7755 23.6169L11.8078 23.118L11.8075 23.118L11.7755 23.6169ZM12.5 1C18.8408 1 24 6.15921 24 12.5H25C25 5.60693 19.3931 0 12.5 0V1ZM1 12.5C1 6.15921 6.15921 1 12.5 1V0C5.60693 0 0 5.60693 0 12.5H1ZM4.16207 20.4133C2.12173 18.2666 1 15.4712 1 12.5H0C0 15.7284 1.22076 18.7702 3.43724 21.1022L4.16207 20.4133ZM4.24331 20.9885L4.24687 20.9814L3.35244 20.5342L3.34889 20.5413L4.24331 20.9885ZM4.36917 20.6308L4.14965 20.4113L3.44255 21.1184L3.66206 21.3379L4.36917 20.6308ZM12.5 24C9.42821 24 6.54222 22.8043 4.3692 20.6309L3.66203 21.3379C6.02252 23.6988 9.16285 25 12.5 25V24ZM20.6308 20.6309C18.4578 22.8043 15.5718 24 12.5 24V25C15.8372 25 18.9775 23.6988 21.338 21.3379L20.6308 20.6309ZM20.8503 20.4113L20.6308 20.6308L21.3379 21.3379L21.5575 21.1184L20.8503 20.4113ZM20.7531 20.9814L20.7567 20.9885L21.6511 20.5413L21.6476 20.5342L20.7531 20.9814ZM24 12.5C24 15.4712 22.8783 18.2666 20.8379 20.4133L21.5628 21.1022C23.7792 18.7702 25 15.7284 25 12.5H24ZM24.1429 12.5C24.1429 6.07969 18.9203 0.857143 12.5 0.857143V1.85714C18.368 1.85714 23.1429 6.63197 23.1429 12.5H24.1429ZM21.1432 20.299C23.0815 18.156 24.1429 15.408 24.1429 12.5H23.1429C23.1429 15.1603 22.1735 17.6692 20.4016 19.6282L21.1432 20.299ZM12.5 16C15.7915 16 18.8007 17.6544 20.3439 20.2212L21.2009 19.7059C19.4624 16.8143 16.1134 15 12.5 15V16ZM4.65615 20.2212C6.19932 17.6544 9.20851 16 12.5 16V15C8.88661 15 5.53759 16.8143 3.79911 19.7059L4.65615 20.2212ZM0.857143 12.5C0.857143 15.408 1.91846 18.156 3.85682 20.299L4.59844 19.6282C2.82649 17.6692 1.85714 15.1603 1.85714 12.5H0.857143ZM12.5 0.857143C6.07969 0.857143 0.857143 6.07969 0.857143 12.5H1.85714C1.85714 6.63197 6.63197 1.85714 12.5 1.85714V0.857143ZM11.9777 23.1301C11.9511 23.1289 11.9236 23.1267 11.8868 23.1238L11.8079 24.1207C11.8421 24.1234 11.8854 24.1269 11.9304 24.129L11.9777 23.1301ZM12.5 23.1429C12.3257 23.1429 12.1516 23.1385 11.978 23.1301L11.9301 24.129C12.1189 24.1381 12.3089 24.1429 12.5 24.1429V23.1429ZM13.0221 23.1302C12.8484 23.1385 12.6743 23.1429 12.5 23.1429V24.1429C12.6911 24.1429 12.8811 24.1381 13.0699 24.129L13.0221 23.1302ZM13.1133 23.1239C13.0765 23.1268 13.0489 23.1289 13.0224 23.1302L13.0696 24.1291C13.1146 24.1269 13.158 24.1235 13.1922 24.1207L13.1133 23.1239ZM13.1922 23.118C13.164 23.1198 13.1365 23.122 13.1133 23.1239L13.1922 24.1207C13.2167 24.1188 13.237 24.1172 13.2568 24.1159L13.1922 23.118ZM13.2299 23.1156L13.1927 23.118L13.2563 24.116L13.2935 24.1136L13.2299 23.1156ZM13.5402 23.0927C13.4412 23.1021 13.3402 23.1086 13.23 23.1156L13.2935 24.1136C13.401 24.1068 13.5179 24.0994 13.6354 24.0881L13.5402 23.0927ZM13.6549 23.0792C13.6106 23.0848 13.5746 23.0893 13.5395 23.0927L13.6361 24.0881C13.6878 24.083 13.738 24.0767 13.78 24.0714L13.6549 23.0792ZM13.7406 23.0688C13.7106 23.0722 13.6811 23.0759 13.6549 23.0792L13.78 24.0714C13.8072 24.068 13.8311 24.0649 13.8547 24.0622L13.7406 23.0688ZM13.7965 23.0624C13.7781 23.0645 13.7592 23.0666 13.7404 23.0688L13.855 24.0622C13.8731 24.0601 13.8912 24.058 13.9098 24.0559L13.7965 23.0624ZM14.0516 23.0307C13.9708 23.0424 13.8881 23.0519 13.7964 23.0624L13.9098 24.0559C13.9989 24.0458 14.0969 24.0346 14.1954 24.0203L14.0516 23.0307ZM14.1847 23.0087C14.1349 23.0174 14.0926 23.0247 14.051 23.0308L14.196 24.0202C14.2527 24.0119 14.3079 24.0023 14.3557 23.994L14.1847 23.0087ZM14.2678 22.9946C14.2391 22.9993 14.2108 23.0042 14.1847 23.0088L14.3557 23.994C14.3824 23.9894 14.4069 23.9851 14.4312 23.9811L14.2678 22.9946ZM14.3237 22.9853C14.3052 22.9884 14.2864 22.9915 14.2675 22.9946L14.4315 23.9811C14.4496 23.9781 14.4677 23.9751 14.4863 23.972L14.3237 22.9853ZM14.5566 22.9446C14.4831 22.959 14.4077 22.9715 14.3237 22.9853L14.4863 23.972C14.5678 23.9586 14.6581 23.9437 14.7488 23.926L14.5566 22.9446ZM14.7023 22.9135C14.6485 22.9255 14.6027 22.9357 14.5576 22.9444L14.7479 23.9262C14.809 23.9143 14.8684 23.901 14.92 23.8895L14.7023 22.9135ZM14.7803 22.8963C14.7535 22.9021 14.727 22.908 14.7023 22.9135L14.92 23.8895C14.9452 23.8839 14.9686 23.8787 14.9918 23.8737L14.7803 22.8963ZM14.8308 22.8854C14.8141 22.889 14.797 22.8927 14.7799 22.8964L14.9922 23.8736C15.0086 23.87 15.0251 23.8665 15.0419 23.8628L14.8308 22.8854ZM15.0569 22.8345C14.9851 22.852 14.9118 22.8679 14.8308 22.8854L15.0419 23.8628C15.1207 23.8458 15.2071 23.8272 15.294 23.806L15.0569 22.8345ZM15.2084 22.7944C15.1526 22.8097 15.104 22.8229 15.056 22.8347L15.2949 23.8058C15.3571 23.7904 15.4179 23.7738 15.4717 23.7592L15.2084 22.7944ZM15.2824 22.7744C15.2571 22.7811 15.232 22.788 15.2084 22.7944L15.4716 23.7592C15.4957 23.7526 15.5184 23.7464 15.5411 23.7403L15.2824 22.7744ZM15.3348 22.7603C15.3172 22.765 15.2993 22.7698 15.2812 22.7747L15.5422 23.74C15.5594 23.7354 15.5766 23.7307 15.5943 23.726L15.3348 22.7603ZM15.5478 22.7011C15.4804 22.7211 15.4112 22.7397 15.3348 22.7603L15.5943 23.726C15.6687 23.706 15.7505 23.684 15.8327 23.6596L15.5478 22.7011ZM15.7156 22.648C15.655 22.6677 15.6009 22.6852 15.5474 22.7012L15.8331 23.6595C15.9001 23.6395 15.9656 23.6182 16.0243 23.5992L15.7156 22.648ZM15.7722 22.6297C15.7531 22.6359 15.734 22.642 15.7156 22.648L16.0244 23.5992C16.0429 23.5931 16.0609 23.5873 16.0787 23.5816L15.7722 22.6297ZM15.7948 22.6224L15.7724 22.6296L16.0784 23.5817L16.1008 23.5745L15.7948 22.6224ZM16.0319 22.544C15.9566 22.5704 15.8795 22.5952 15.7949 22.6224L16.1008 23.5745C16.1833 23.548 16.2731 23.5191 16.3631 23.4876L16.0319 22.544ZM16.2047 22.4802C16.1427 22.5036 16.087 22.5246 16.0318 22.544L16.3632 23.4875C16.4313 23.4636 16.4978 23.4384 16.558 23.4157L16.2047 22.4802ZM16.2543 22.4615C16.2376 22.4678 16.2209 22.4741 16.2047 22.4802L16.558 23.4157C16.5744 23.4095 16.5903 23.4035 16.6061 23.3976L16.2543 22.4615ZM16.2575 22.4603L16.2543 22.4615L16.6061 23.3976L16.6093 23.3964L16.2575 22.4603ZM16.5072 22.3639C16.4274 22.3964 16.346 22.427 16.2573 22.4604L16.6094 23.3963C16.6961 23.3637 16.7896 23.3286 16.8835 23.2905L16.5072 22.3639ZM16.6899 22.2863C16.6248 22.3146 16.5657 22.3402 16.5072 22.364L16.8836 23.2904C16.9547 23.2615 17.0244 23.2313 17.0878 23.2038L16.6899 22.2863ZM16.7266 22.2705C16.7143 22.2758 16.702 22.2811 16.6899 22.2864L17.0878 23.2038C17.0999 23.1985 17.1118 23.1934 17.1237 23.1882L16.7266 22.2705ZM16.7281 22.2698L16.7265 22.2705L17.1238 23.1882L17.1255 23.1875L16.7281 22.2698ZM16.9728 22.1613C16.8947 22.1975 16.8147 22.2322 16.7279 22.2699L17.1257 23.1874C17.2105 23.1506 17.3023 23.1108 17.3939 23.0683L16.9728 22.1613ZM17.1833 22.0596C17.1091 22.0961 17.0408 22.1297 16.9726 22.1614L17.3941 23.0682C17.4739 23.0311 17.552 22.9927 17.6246 22.957L17.1833 22.0596ZM17.1898 22.0564L17.1833 22.0596L17.6245 22.957L17.631 22.9538L17.1898 22.0564ZM17.4287 21.9361C17.3519 21.9764 17.2732 22.0154 17.1895 22.0566L17.6313 22.9537C17.715 22.9124 17.8037 22.8686 17.8927 22.822L17.4287 21.9361ZM17.6414 21.8204C17.5668 21.8617 17.4974 21.9001 17.4283 21.9363L17.8931 22.8217C17.9734 22.7796 18.0521 22.7361 18.1257 22.6953L17.6414 21.8204ZM17.874 21.6885C17.7991 21.7326 17.722 21.7758 17.6413 21.8205L18.1257 22.6953C18.2087 22.6494 18.2948 22.6012 18.3811 22.5504L17.874 21.6885ZM18.0815 21.5627C18.0108 21.6065 17.9424 21.6483 17.8743 21.6883L18.3808 22.5506C18.4587 22.5048 18.5346 22.4583 18.6079 22.413L18.0815 21.5627ZM18.3083 21.4189C18.2348 21.467 18.1592 21.5146 18.0813 21.5629L18.6082 22.4128C18.6893 22.3625 18.7727 22.3101 18.8562 22.2555L18.3083 21.4189ZM18.5105 21.2827C18.4418 21.3299 18.3751 21.3752 18.3086 21.4187L18.8559 22.2556C18.9318 22.206 19.0057 22.1558 19.0771 22.1066L18.5105 21.2827ZM18.7299 21.1279C18.6585 21.1798 18.5853 21.2312 18.5104 21.2828L19.0773 22.1066C19.1568 22.0518 19.2376 21.9952 19.3181 21.9366L18.7299 21.1279ZM18.9279 20.9806C18.8619 21.0309 18.7963 21.0798 18.7307 21.1273L19.3173 21.9372C19.3906 21.8841 19.4627 21.8303 19.5337 21.7763L18.9279 20.9806ZM19.1388 20.8157C19.0692 20.8716 18.9988 20.9266 18.9276 20.9808L19.5339 21.7761C19.6113 21.7171 19.6882 21.657 19.7646 21.5957L19.1388 20.8157ZM19.332 20.6572C19.2684 20.7106 19.2041 20.7634 19.139 20.8156L19.7644 21.5958C19.8354 21.539 19.9058 21.4812 19.9758 21.4223L19.332 20.6572ZM19.5343 20.4824C19.4669 20.542 19.3997 20.6003 19.3322 20.6569L19.9755 21.4226C20.0508 21.3593 20.1246 21.2954 20.197 21.2313L19.5343 20.4824ZM19.722 20.3131C19.661 20.3696 19.5987 20.4256 19.535 20.4817L20.1962 21.2319C20.2648 21.1715 20.3335 21.1097 20.4019 21.0464L19.722 20.3131ZM19.7672 20.2701C19.7496 20.287 19.7357 20.3004 19.7221 20.313L20.4018 21.0465C20.423 21.0268 20.4433 21.0073 20.4599 20.9913L19.7672 20.2701ZM19.807 20.2322C19.7928 20.2455 19.7791 20.2587 19.7672 20.2701L20.4599 20.9913C20.4723 20.9794 20.4828 20.9693 20.4931 20.9596L19.807 20.2322ZM12.5 16.8571C15.5713 16.8571 18.3606 18.4284 19.714 20.8405L20.5861 20.3512C19.0387 17.5933 15.8967 15.8571 12.5 15.8571V16.8571ZM5.28605 20.8405C6.63941 18.4284 9.42874 16.8571 12.5 16.8571V15.8571C9.10335 15.8571 5.96133 17.5933 4.41395 20.3512L5.28605 20.8405ZM5.23279 20.27C5.22095 20.2586 5.20723 20.2455 5.19311 20.2321L4.50689 20.9595C4.51721 20.9693 4.5277 20.9793 4.54006 20.9912L5.23279 20.27ZM5.2779 20.3129C5.26435 20.3003 5.25048 20.287 5.23277 20.27L4.54009 20.9912C4.55667 21.0072 4.57705 21.0268 4.59833 21.0465L5.2779 20.3129ZM5.46501 20.4817C5.40133 20.4256 5.33904 20.3695 5.27805 20.313L4.59818 21.0463C4.66653 21.1097 4.73521 21.1714 4.80379 21.2319L5.46501 20.4817ZM5.66781 20.6569C5.60029 20.6002 5.53304 20.5419 5.46582 20.4824L4.80298 21.2312C4.87548 21.2954 4.94931 21.3593 5.02451 21.4225L5.66781 20.6569ZM5.86102 20.8155C5.7959 20.7633 5.73161 20.7106 5.66808 20.6571L5.02424 21.4223C5.09424 21.4812 5.1647 21.539 5.23561 21.5958L5.86102 20.8155ZM6.0724 20.9808C6.00129 20.9266 5.93088 20.8716 5.86119 20.8156L5.23544 21.5957C5.31181 21.6569 5.38874 21.717 5.46618 21.7761L6.0724 20.9808ZM6.26931 21.1273C6.20365 21.0797 6.13807 21.0308 6.07231 20.9807L5.46626 21.7761C5.53731 21.8303 5.60946 21.8841 5.68275 21.9372L6.26931 21.1273ZM6.48965 21.2827C6.41475 21.2312 6.34151 21.1798 6.27015 21.1279L5.6819 21.9366C5.76243 21.9951 5.84322 22.0518 5.92278 22.1065L6.48965 21.2827ZM6.69153 21.4187C6.62497 21.3752 6.55817 21.3298 6.48952 21.2826L5.92291 22.1066C5.99449 22.1558 6.06835 22.206 6.14406 22.2555L6.69153 21.4187ZM6.91877 21.5628C6.84086 21.5145 6.76525 21.467 6.69171 21.4188L6.14389 22.2554C6.2273 22.31 6.31077 22.3625 6.39186 22.4128L6.91877 21.5628ZM7.12577 21.6883C7.05757 21.6482 6.98909 21.6064 6.9186 21.5627L6.39203 22.4129C6.46546 22.4583 6.5414 22.5048 6.61926 22.5505L7.12577 21.6883ZM7.3587 21.8204C7.27802 21.7758 7.20094 21.7325 7.12605 21.6885L6.61898 22.5504C6.70524 22.6011 6.79135 22.6493 6.8743 22.6953L7.3587 21.8204ZM7.57196 21.9364C7.50267 21.9 7.43294 21.8615 7.35874 21.8204L6.87426 22.6952C6.94818 22.7362 7.02665 22.7795 7.10676 22.8216L7.57196 21.9364ZM7.81058 22.0565C7.72686 22.0153 7.64816 21.9763 7.57136 21.9361L7.10736 22.8219C7.19632 22.8685 7.28503 22.9124 7.36871 22.9536L7.81058 22.0565ZM7.82062 22.0615L7.81026 22.0564L7.36902 22.9538L7.37938 22.9589L7.82062 22.0615ZM8.02726 22.1613C7.96052 22.1303 7.89361 22.0974 7.82067 22.0615L7.37933 22.9588C7.45057 22.9939 7.52753 23.0318 7.60614 23.0683L8.02726 22.1613ZM8.27371 22.2705C8.18636 22.2327 8.10584 22.1977 8.02728 22.1613L7.60612 23.0683C7.6983 23.1111 7.79059 23.151 7.87612 23.1881L8.27371 22.2705ZM8.30495 22.2841C8.29461 22.2796 8.28415 22.2751 8.27365 22.2705L7.87618 23.1881C7.88633 23.1925 7.89651 23.1969 7.90681 23.2014L8.30495 22.2841ZM8.49284 22.3639C8.43261 22.3394 8.37188 22.3131 8.30491 22.2841L7.90685 23.2014C7.972 23.2297 8.04353 23.2608 8.1165 23.2904L8.49284 22.3639ZM8.73977 22.4592C8.65213 22.4262 8.5717 22.3959 8.49282 22.3639L8.11653 23.2904C8.20938 23.3281 8.30191 23.3629 8.38757 23.3951L8.73977 22.4592ZM8.74596 22.4616L8.7398 22.4592L8.38754 23.3951L8.39369 23.3974L8.74596 22.4616ZM8.79509 22.4801C8.77895 22.474 8.76236 22.4677 8.74569 22.4614L8.39397 23.3976C8.40974 23.4035 8.42556 23.4095 8.44184 23.4156L8.79509 22.4801ZM8.96832 22.544C8.91298 22.5246 8.85719 22.5035 8.79508 22.4801L8.44185 23.4156C8.50212 23.4384 8.56871 23.4635 8.63677 23.4874L8.96832 22.544ZM9.19921 22.6204C9.11664 22.5939 9.04148 22.5697 8.96812 22.5439L8.63697 23.4875C8.72483 23.5184 8.81255 23.5465 8.89303 23.5724L9.19921 22.6204ZM9.22775 22.6296L9.19926 22.6205L8.89297 23.5724L8.92145 23.5816L9.22775 22.6296ZM9.28423 22.6479C9.2659 22.642 9.24694 22.6358 9.22789 22.6297L8.92131 23.5815C8.93913 23.5873 8.95701 23.5931 8.97554 23.5991L9.28423 22.6479ZM9.45269 22.7012C9.39909 22.6852 9.34497 22.6676 9.28424 22.6479L8.97553 23.5991C9.03437 23.6182 9.09989 23.6395 9.16691 23.6594L9.45269 22.7012ZM9.66529 22.7602C9.5888 22.7397 9.51968 22.7211 9.45226 22.701L9.16733 23.6596C9.24951 23.684 9.3314 23.706 9.40573 23.726L9.66529 22.7602ZM9.71877 22.7746C9.70078 22.7698 9.68282 22.7649 9.66528 22.7602L9.40574 23.726C9.42343 23.7307 9.44069 23.7353 9.45789 23.74L9.71877 22.7746ZM9.79156 22.7944C9.7679 22.7879 9.74292 22.7811 9.71768 22.7743L9.45898 23.7403C9.48155 23.7463 9.50427 23.7525 9.52827 23.7591L9.79156 22.7944ZM9.94401 22.8347C9.89603 22.8229 9.8474 22.8096 9.79155 22.7944L9.52828 23.7591C9.58207 23.7738 9.64289 23.7904 9.70519 23.8057L9.94401 22.8347ZM10.1648 22.8843C10.0853 22.8672 10.0135 22.8516 9.94317 22.8344L9.70603 23.8059C9.79143 23.8268 9.87623 23.8451 9.95351 23.8618L10.1648 22.8843ZM10.2203 22.8964C10.2016 22.8923 10.183 22.8883 10.1648 22.8843L9.95353 23.8618C9.97185 23.8657 9.9898 23.8696 10.0077 23.8735L10.2203 22.8964ZM10.2978 22.9135C10.2731 22.908 10.2466 22.9021 10.2198 22.8963L10.0082 23.8736C10.0315 23.8787 10.0549 23.8839 10.0802 23.8895L10.2978 22.9135ZM10.4425 22.9444C10.3974 22.9357 10.3516 22.9255 10.2978 22.9135L10.0802 23.8895C10.1317 23.901 10.1911 23.9143 10.2522 23.9261L10.4425 22.9444ZM10.6764 22.9853C10.5923 22.9714 10.5169 22.959 10.4434 22.9446L10.2512 23.9259C10.342 23.9437 10.4323 23.9585 10.5138 23.972L10.6764 22.9853ZM10.7326 22.9946C10.7137 22.9914 10.6948 22.9883 10.6764 22.9853L10.5138 23.972C10.5324 23.975 10.5505 23.978 10.5685 23.981L10.7326 22.9946ZM10.815 23.0087C10.789 23.0041 10.7608 22.9993 10.7322 22.9945L10.5689 23.9811C10.593 23.9851 10.6174 23.9893 10.6441 23.9939L10.815 23.0087ZM10.949 23.0308C10.9074 23.0246 10.8649 23.0173 10.815 23.0087L10.6441 23.9939C10.6919 24.0022 10.7472 24.0119 10.8041 24.0202L10.949 23.0308ZM11.2018 23.0621C11.1107 23.0517 11.0287 23.0424 10.9486 23.0307L10.8045 24.0203C10.9025 24.0345 11.0001 24.0456 11.0886 24.0557L11.2018 23.0621ZM11.2597 23.0688C11.2402 23.0665 11.2208 23.0643 11.2018 23.0621L11.0886 24.0557C11.1077 24.0579 11.1264 24.06 11.1451 24.0622L11.2597 23.0688ZM11.3448 23.0792C11.3187 23.0759 11.2894 23.0722 11.2595 23.0687L11.1452 24.0622C11.1688 24.0649 11.1927 24.0679 11.2197 24.0713L11.3448 23.0792ZM11.4605 23.0927C11.4253 23.0893 11.3893 23.0848 11.3449 23.0792L11.2197 24.0713C11.2618 24.0766 11.3121 24.083 11.364 24.088L11.4605 23.0927ZM11.7718 23.1157C11.6611 23.1086 11.5593 23.1021 11.4597 23.0926L11.3648 24.0881C11.4828 24.0993 11.6003 24.1068 11.7083 24.1137L11.7718 23.1157ZM11.8075 23.118C11.7956 23.1172 11.7836 23.1164 11.7719 23.1157L11.7083 24.1137C11.7202 24.1144 11.7319 24.1152 11.7436 24.1159L11.8075 23.118ZM11.8868 23.1238C11.8635 23.122 11.836 23.1198 11.8078 23.118L11.7433 24.1159C11.7631 24.1172 11.7834 24.1188 11.8079 24.1207L11.8868 23.1238Z" fill="white"/>
<path fill-rule="evenodd" clip-rule="evenodd" d="M16.7853 8.64289C16.7853 11.0061 14.8628 12.9286 12.4996 12.9286C10.1364 12.9286 8.21387 11.0061 8.21387 8.64289C8.21387 6.27966 10.1364 4.35718 12.4996 4.35718C14.8628 4.35718 16.7853 6.27966 16.7853 8.64289ZM15.9282 8.64289C15.9282 6.75242 14.3901 5.21432 12.4996 5.21432C10.6091 5.21432 9.07101 6.75242 9.07101 8.64289C9.07101 10.5334 10.6091 12.0715 12.4996 12.0715C14.3901 12.0715 15.9282 10.5334 15.9282 8.64289Z" fill="white"/>
<path d="M12.4996 13.4286C15.139 13.4286 17.2853 11.2823 17.2853 8.64289H16.2853C16.2853 10.73 14.5867 12.4286 12.4996 12.4286V13.4286ZM7.71387 8.64289C7.71387 11.2823 9.86021 13.4286 12.4996 13.4286V12.4286C10.4125 12.4286 8.71387 10.73 8.71387 8.64289H7.71387ZM12.4996 3.85718C9.86021 3.85718 7.71387 6.00352 7.71387 8.64289H8.71387C8.71387 6.55581 10.4125 4.85718 12.4996 4.85718V3.85718ZM17.2853 8.64289C17.2853 6.00352 15.139 3.85718 12.4996 3.85718V4.85718C14.5867 4.85718 16.2853 6.55581 16.2853 8.64289H17.2853ZM12.4996 5.71432C14.1139 5.71432 15.4282 7.02856 15.4282 8.64289H16.4282C16.4282 6.47628 14.6662 4.71432 12.4996 4.71432V5.71432ZM9.57101 8.64289C9.57101 7.02856 10.8853 5.71432 12.4996 5.71432V4.71432C10.333 4.71432 8.57101 6.47628 8.57101 8.64289H9.57101ZM12.4996 11.5715C10.8853 11.5715 9.57101 10.2572 9.57101 8.64289H8.57101C8.57101 10.8095 10.333 12.5715 12.4996 12.5715V11.5715ZM15.4282 8.64289C15.4282 10.2572 14.1139 11.5715 12.4996 11.5715V12.5715C14.6662 12.5715 16.4282 10.8095 16.4282 8.64289H15.4282Z" fill="white"/>
</svg>
