<svg width="121" height="90" viewBox="0 0 121 90" fill="none" xmlns="http://www.w3.org/2000/svg">
<path id="Shape" fill-rule="evenodd" clip-rule="evenodd" d="M110.818 11.6989L111.507 11.9472L111.505 16.4688H120.128L120.127 90H0V16.4688L8.63657 16.4697V11.9409L9.3322 11.6963C16.9282 9.03104 25.165 7.68537 33.8323 7.67142V0H34.8739C47.7967 0 57.0706 8.18566 60.012 11.1923C62.5746 8.47944 71.6668 0 85.2668 0H86.3083V7.67404C100.304 7.97259 110.386 11.5436 110.818 11.6989ZM86.3094 56.663V69.3609L86.3098 69.3622L85.2646 69.3604C75.3695 69.3604 67.8843 74.3106 63.9542 77.6474C84.6022 71.8956 104.13 76.9258 109.419 78.5281V13.4295C106.925 12.6295 97.9003 10.0136 86.3045 9.75504L86.3035 29.5839C94.7961 29.8258 100.88 31.9824 101.144 32.0772L100.437 34.0367C100.376 34.0125 94.4259 31.9117 86.3055 31.6671V42.0828C94.798 42.3247 100.882 44.4794 101.146 44.5743L100.439 46.5337C100.378 46.5114 94.4279 44.4106 86.3074 44.166V54.5798C94.8 54.8217 100.884 56.9783 101.148 57.0731L100.441 59.0326C100.38 59.0084 94.4298 56.9076 86.3094 56.663ZM61.1118 13.0733C62.569 11.4654 71.2065 2.55905 84.2253 2.09957V67.2935C72.7057 67.6617 64.5676 74.0609 61.1118 77.3651V13.0733ZM35.9154 2.10033V8.70138V67.2935C47.3756 67.6682 55.5807 74.126 59.029 77.4023V13.0964C57.6248 11.5935 48.6757 2.57369 35.9154 2.10033ZM10.7202 13.4209C17.9005 10.9909 25.6843 9.76699 33.8347 9.75318V29.5689C28.5757 29.6247 23.5883 30.4589 18.9932 32.0725L19.6833 34.0376C24.055 32.5012 28.8398 31.7061 33.8345 31.6513V42.067C28.5588 42.1284 23.5872 42.9561 18.9931 44.5697L19.6831 46.5347C24.0567 44.9984 28.8034 44.2032 33.8344 44.1485V54.567C28.5754 54.6368 23.588 55.4542 18.9929 57.0678L19.683 59.0328C24.0547 57.4965 28.8395 56.7181 33.8343 56.6492V69.3573H34.8758C44.9511 69.3573 52.4616 74.4135 56.321 77.7465C48.3596 75.6634 29.9044 72.2299 10.7205 78.5007L10.7202 13.4209ZM118.046 87.9156V18.5507L111.506 18.5518L111.505 81.4388L110.111 80.9357C109.866 80.8482 85.2921 72.1985 60.4159 80.9384L59.9993 81.0844L59.7965 80.9831H59.551L59.419 80.8231C57.0168 80.0047 33.9142 72.5473 10.0212 80.9384L8.63372 81.4258V18.5507H2.0829V87.9156H118.046Z" fill="black"/>
</svg>
