<svg width="24" height="19" viewBox="0 0 24 19" fill="none" xmlns="http://www.w3.org/2000/svg">
<path d="M23.3801 2.24911C22.5206 2.63116 21.5956 2.88887 20.625 3.0042C21.616 2.41095 22.3758 1.47125 22.7341 0.350252C21.8072 0.90031 20.7812 1.29945 19.6882 1.51491C18.8135 0.582805 17.5667 0 16.1871 0C13.5383 0 11.3908 2.14755 11.3908 4.79675C11.3908 5.17215 11.433 5.53807 11.5151 5.88974C7.52853 5.68946 3.99373 3.78016 1.62787 0.878004C1.21497 1.5861 0.978618 2.41 0.978618 3.2899C0.978618 4.95384 1.8253 6.42224 3.1124 7.28221C2.32647 7.25706 1.58658 7.04112 0.939701 6.68185C0.939227 6.70178 0.939227 6.72219 0.939227 6.74259C0.939227 9.06622 2.59272 11.0045 4.78726 11.4458C4.3848 11.555 3.96098 11.6139 3.52341 11.6139C3.21397 11.6139 2.91355 11.584 2.62072 11.5275C3.23153 13.433 5.00272 14.8202 7.10139 14.8587C5.45976 16.1453 3.39194 16.9123 1.14425 16.9123C0.757456 16.9123 0.375406 16.8895 0 16.8449C2.12335 18.2065 4.6444 19 7.35292 19C16.1761 19 21.0004 11.6912 21.0004 5.3525C21.0004 5.14463 20.9962 4.93723 20.9871 4.73125C21.924 4.05638 22.7374 3.21112 23.3801 2.24911Z" fill="white"/>
</svg>
