<svg width="101" height="81" viewBox="0 0 101 81" fill="none" xmlns="http://www.w3.org/2000/svg">
<path id="Combined Shape" fill-rule="evenodd" clip-rule="evenodd" d="M71 29.5035C71 13.2535 57.7021 0 41.3972 0H29.6028C13.2981 0 0 13.2533 0 29.5035C0 40.6824 6.35933 50.8241 16.3039 55.8954C15.0321 57.9696 13.5286 59.8139 11.6781 61.5423C11.2157 62.0032 10.9841 62.6949 11.2157 63.3866C11.4473 64.0782 12.0251 64.5391 12.7191 64.6542C14.338 64.885 15.9569 65 17.4603 65C24.0512 65 30.1803 62.9257 35.3839 59.0072H41.3968C57.7014 59.0072 70.9995 45.7539 70.9995 29.5037L71 29.5035ZM41.3972 55.3193H34.6902C34.2278 55.3193 33.8808 55.4344 33.5338 55.6652C28.7926 59.4687 23.0112 61.4272 16.8819 61.3121C18.2692 59.5837 19.5417 57.7395 20.4666 55.7802C20.6982 55.3193 20.6982 54.7427 20.5821 54.2818C20.3505 53.8209 20.0042 53.4751 19.5411 53.2443C9.94399 49.3265 3.70026 39.991 3.70026 29.5029C3.70026 15.2122 15.3793 3.68712 29.6029 3.68712H41.3974C55.7362 3.68712 67.3 15.327 67.3 29.5029C67.3 43.7937 55.7364 55.3188 41.3974 55.3188L41.3972 55.3193ZM94.6587 70.2151C96.0181 72.4191 97.8304 74.2752 99.9818 75.6666L99.9819 75.6657C100.549 76.0138 100.888 76.7091 101 77.4053C101 78.1013 100.547 78.6809 99.8674 78.9132C98.8477 79.377 97.829 79.6086 96.6964 79.8409C92.8455 80.5362 88.9948 80.1882 85.484 78.7967C82.5397 80.1881 79.2549 81 75.9708 81C64.0797 81 54.2268 71.1415 54 58.9634C54 57.9193 54.7928 57.1074 55.8123 57.1074C56.8319 57.1074 57.6246 57.9193 57.6246 58.9634C57.7375 69.1697 66.0056 77.405 75.9716 77.405C79.0296 77.405 81.8606 76.5932 84.5788 75.2017C85.0317 74.8537 85.7114 74.8537 86.1643 75.086C88.9953 76.3617 92.1664 76.8255 95.2244 76.3617C93.5258 74.8544 92.1672 72.9984 91.1476 71.0266C90.8078 70.3306 90.9208 69.6345 91.2607 69.0549C93.2991 65.9231 94.4317 62.3283 94.4317 58.5005C94.4317 48.0623 86.1647 39.5955 75.9719 39.5955C75.2246 39.5955 74.5543 39.6748 73.7701 39.7675C73.6037 39.7872 73.4322 39.8075 73.2537 39.8278C72.2349 40.0593 71.3284 39.364 71.2154 38.3198C70.9893 37.2764 71.6683 36.348 72.6878 36.2323L72.9818 36.2019L72.982 36.2019C73.9984 36.0964 74.9283 36 75.8589 36C87.9768 36 97.8297 46.0904 97.8297 58.5007C97.8297 62.676 96.697 66.7353 94.6587 70.2151ZM41.6835 16.0431C40.0691 14.6813 37.9936 14 35.4561 14C32.9194 14 30.7281 14.6813 28.9986 16.1564C27.2691 17.6323 26.2309 19.5622 26 22.0592H31.1892C31.3043 20.9239 31.7654 20.0161 32.4575 19.4481C33.1496 18.7668 34.0719 18.4262 35.2252 18.4262C36.3784 18.4262 37.1856 18.7668 37.8776 19.4481C38.5697 20.1301 38.9157 20.9247 38.9157 22.0599C38.9157 23.0818 38.5697 23.9897 37.8776 24.6709L34.7646 27.7353C33.8423 28.6433 33.2654 29.3245 32.9193 29.8918C32.6884 30.459 32.4582 31.2536 32.4582 32.389V35H37.3013V33.0702C37.3013 31.9349 37.5323 31.0271 38.1085 30.4591L38.9157 29.6645C39.2618 29.3239 39.6078 28.9832 40.1841 28.5293L41.3373 27.394C41.5618 27.2465 41.7864 26.9559 42.0738 26.5839L42.0738 26.5838L42.0739 26.5838C42.2294 26.3825 42.4033 26.1573 42.6056 25.9181C43.5279 24.7829 43.9891 23.4209 43.9891 21.7179C44.1049 19.3354 43.2977 17.4056 41.6834 16.0432L41.6835 16.0431ZM32.9822 39.0181C33.5966 38.382 34.4561 38 35.4383 38C36.2979 38 37.1574 38.382 37.8945 39.0181C38.6315 39.6541 39 40.418 39 41.4361C39 42.4549 38.7548 43.3459 38.0178 43.9819C37.4034 44.618 36.5439 45 35.5617 45C34.7021 45 33.8426 44.618 33.1055 43.9819C32.3685 43.3459 32 42.582 32 41.5639C32 40.5451 32.2452 39.782 32.9822 39.0181ZM74 68V55H77V68H74ZM75.5 50C75.9285 50 76.25 50.107 76.5715 50.4285C76.8931 50.75 77 51.1785 77 51.5C77 51.9285 76.8931 52.25 76.5715 52.5715C76.3569 52.8931 75.9285 53 75.5 53C75.0715 53 74.75 52.893 74.4285 52.5715C74.1069 52.357 74 51.9285 74 51.5C74 51.0715 74.1069 50.75 74.4285 50.4285C74.6431 50.1069 75.0715 50 75.5 50Z" fill="black"/>
</svg>
