<svg width="22" height="21" viewBox="0 0 22 21" fill="none" xmlns="http://www.w3.org/2000/svg">
<path id="Path Copy 16" d="M15.766 6.09065L20.5001 6.77285C21.8426 6.96627 22.3805 8.61526 21.4104 9.56296L17.9893 12.9055C17.604 13.2819 17.4287 13.8237 17.5204 14.3544L18.3346 19.0674C18.5654 20.4039 17.1636 21.425 15.9622 20.7953L11.726 18.575C11.2489 18.325 10.6793 18.3255 10.203 18.5767L5.97209 20.8075C4.77242 21.4401 3.368 20.4222 3.59559 19.0852L4.39843 14.37C4.48871 13.839 4.31228 13.2976 3.92595 12.922L0.497402 9.58787C-0.475033 8.64237 0.0588993 6.99222 1.40117 6.79552L6.13351 6.10217C6.66641 6.02425 7.12668 5.68889 7.36442 5.20561L9.47607 0.913942C10.0749 -0.303041 11.8093 -0.305106 12.4109 0.910509L14.5327 5.19699C14.7717 5.67941 15.2327 6.01376 15.7659 6.09047L15.766 6.09065Z" fill="#F58366"/>
</svg>
