<svg width="23" height="22" viewBox="0 0 23 22" fill="none" xmlns="http://www.w3.org/2000/svg">
<path id="Path Copy 31" d="M16.2665 6.59065L21.0006 7.27285C22.3431 7.46627 22.881 9.11526 21.9109 10.063L18.4898 13.4055C18.1045 13.7819 17.9292 14.3237 18.0209 14.8544L18.8351 19.5674C19.0659 20.9039 17.6641 21.925 16.4627 21.2953L12.2265 19.075C11.7494 18.825 11.1797 18.8255 10.7035 19.0767L6.47258 21.3075C5.27291 21.9401 3.86849 20.9222 4.09608 19.5852L4.89892 14.87C4.9892 14.339 4.81277 13.7976 4.42643 13.422L0.997891 10.0879C0.0254555 9.14237 0.559388 7.49222 1.90165 7.29552L6.634 6.60217C7.1669 6.52425 7.62717 6.18889 7.86491 5.70561L9.97656 1.41394C10.5754 0.196959 12.3098 0.194894 12.9114 1.41051L15.0332 5.69699C15.2722 6.17941 15.7332 6.51376 16.2664 6.59047L16.2665 6.59065Z" fill="white" stroke="#979797"/>
</svg>
