<svg width="30" height="30" viewBox="0 0 30 30" fill="none" xmlns="http://www.w3.org/2000/svg">
<path fill-rule="evenodd" clip-rule="evenodd" d="M4.39335 4.39357C7.20653 1.58054 11.0218 0.000257144 15 0.000257144L14.9997 0C17.6329 0 20.2196 0.693068 22.5001 2.00945C24.7802 3.32603 26.6739 5.21971 27.9905 7.49987C29.3069 9.78042 30 12.3672 30 15.0001C30 18.9782 28.4197 22.7937 25.6067 25.6067C22.7935 28.4197 18.9781 30 15 30C11.0219 30 7.2064 28.4197 4.39335 25.6067C1.58029 22.7935 0 18.9782 0 15.0001C0 11.0221 1.58029 7.2066 4.39335 4.39357ZM14.8117 20.6493L23.5291 13.3162L23.5293 13.316C23.9116 12.9939 24.078 12.5091 23.9654 12.0441C23.8528 11.579 23.4784 11.2044 22.9832 11.0616C22.488 10.9185 21.9476 11.0288 21.565 11.3506L13.8731 17.8214L10.498 14.7241C10.2273 14.4668 9.85517 14.3201 9.46551 14.317C9.07585 14.3141 8.70105 14.4547 8.42546 14.7076C8.15013 14.9605 7.99665 15.3042 8.00006 15.6621C8.00346 16.0196 8.16326 16.3609 8.44371 16.6094L12.8024 20.6093C13.067 20.8524 13.4239 20.9921 13.7982 20.9997C14.1725 21.0071 14.5356 20.8816 14.8117 20.6493Z" fill="#7FC3BA"/>
</svg>
