<svg width="101" height="92" viewBox="0 0 101 92" fill="none" xmlns="http://www.w3.org/2000/svg">
<path id="Shape" fill-rule="evenodd" clip-rule="evenodd" d="M17.8634 2.08488H25.052V0.576794C25.052 0.258365 25.3106 0 25.6294 0C25.9482 0 26.2068 0.258365 26.2068 0.576794V2.08488H32.3705V0.576794C32.3705 0.258365 32.6291 0 32.9479 0C33.2667 0 33.5253 0.258365 33.5253 0.576794V2.08488H39.6897V0.576794C39.6897 0.258365 39.9483 0 40.2671 0C40.5859 0 40.8445 0.258365 40.8445 0.576794V2.08488H47.0082V0.576794C47.0082 0.258365 47.2668 0 47.5856 0C47.9044 0 48.1638 0.258365 48.1638 0.576794V2.08488H54.3274V0.576794C54.3274 0.258365 54.586 0 54.9048 0C55.2236 0 55.4822 0.258365 55.4822 0.576794V2.08488H61.6458V0.576794C61.6458 0.258365 61.9045 0 62.224 0C62.5428 0 62.8014 0.258365 62.8014 0.576794V2.08488H68.965V0.576794C68.965 0.258365 69.2237 0 69.5425 0C69.8613 0 70.1199 0.258365 70.1199 0.576794V2.08488H76.2835V0.576794C76.2835 0.258365 76.5422 0 76.8617 0C77.1805 0 77.4391 0.258365 77.4391 0.576794V2.08488H84.6277C85.2652 2.08488 85.7825 2.60159 85.7825 3.23847V11.7725C85.8577 11.9257 85.9006 12.0977 85.9006 12.2802L85.778 90.7473L85.779 90.7587C85.7813 90.7879 85.7825 90.8172 85.7825 90.8464C85.7825 91.4833 85.2652 92 84.6277 92H17.864C17.2264 92 16.7091 91.4833 16.7091 90.8464V84.7578H1.15485C0.517276 84.7578 0 84.2411 0 83.6042V70.2839C0 69.647 0.517276 69.1303 1.15485 69.1303H16.716L16.8348 12.8717C16.7544 12.7148 16.7093 12.5368 16.7093 12.3475V3.2382C16.7093 2.60133 17.2266 2.08461 17.8641 2.08461L17.8634 2.08488ZM58.2608 35.8343V48.535C58.2608 48.8531 58.0027 49.1112 57.6846 49.1112H44.9834C45.1297 52.3927 46.5207 55.3508 48.6941 57.5251C50.9951 59.8255 54.174 61.2486 57.6846 61.2486C61.1949 61.2486 64.3738 59.8254 66.6742 57.5244C68.9746 55.2241 70.3978 52.0455 70.3978 48.535C70.3978 45.024 68.9745 41.8459 66.6742 39.5449C64.5008 37.3715 61.5424 35.9804 58.2608 35.8343ZM47.8571 38.708C45.5083 41.057 43.9953 44.2425 43.8018 47.779L32.5304 47.7788V23.3812H56.9282V34.6519C53.3916 34.8455 50.2069 36.3583 47.8571 38.708ZM57.1823 48.0331V35.8343C53.8799 35.9814 50.9044 37.3802 48.7168 39.5676C46.5293 41.7551 45.1305 44.7315 44.9834 48.0331H57.1823ZM71.6321 70.0389L64.4158 83.4547L64.415 83.4546C64.341 83.5723 64.2983 83.7125 64.2983 83.8624C64.2983 84.2858 64.6416 84.6298 65.064 84.6298H79.5453V84.6283C79.6679 84.6283 79.792 84.5984 79.9072 84.5369C80.2788 84.3368 80.4179 83.8721 80.2182 83.4996L72.978 70.0389C72.9099 69.9107 72.8037 69.8013 72.6669 69.7271C72.2953 69.5262 71.8317 69.6664 71.6321 70.0389ZM72.3042 71.9227H72.3035L66.3315 83.105H78.2762L72.3042 71.9227ZM94.9754 17.8592V21.3994L94.9769 21.4004H94.13V21.4027C93.661 21.4034 93.2186 21.6876 93.0436 22.1493L90.3293 29.2641C90.2604 29.4115 90.2217 29.5761 90.2217 29.7491V70.3652L90.221 70.3953V73.1241C90.221 74.1896 90.6619 75.161 91.3732 75.8663C92.0817 76.5687 93.0581 77.0055 94.1323 77.0055H96.9829C98.0572 77.0055 99.0337 76.5694 99.742 75.8663C100.453 75.161 100.895 74.1903 100.895 73.1241V70.3953L100.894 70.3622V29.748C100.894 29.575 100.856 29.4104 100.787 29.263L98.1011 22.2243C97.9579 21.7468 97.5125 21.3994 96.986 21.3994H96.139V17.8592C96.139 17.5404 95.8784 17.2818 95.5572 17.2818C95.2361 17.2818 94.9754 17.5404 94.9754 17.8592ZM92.7632 71.6685V73.1941C92.7632 73.6154 92.9346 73.9959 93.2112 74.27C93.49 74.5462 93.8762 74.7182 94.3014 74.7182H97.0695C97.4947 74.7182 97.8809 74.5462 98.1597 74.27C98.4363 73.9959 98.6077 73.6154 98.6077 73.1941V71.6685H92.7632ZM96.2934 23.8895L98.0994 28.7182H93.2707L95.0768 23.8895H96.2934ZM98.6077 69.3812V31.0055H92.7624V69.3812H98.6077ZM54.6409 75.7348C54.2202 75.7348 53.8785 76.0814 53.8785 76.5081V79.7902C53.8785 80.2177 54.2202 80.5635 54.6409 80.5635C55.0616 80.5635 55.4033 80.2177 55.4033 79.7902V76.5081C55.4033 76.0814 55.0616 75.7348 54.6409 75.7348ZM5.33702 76.5081C5.33702 76.0814 5.67878 75.7348 6.09945 75.7348C6.52012 75.7348 6.86188 76.0814 6.86188 76.5081V79.7902C6.86188 80.2177 6.52012 80.5635 6.09945 80.5635C5.67878 80.5635 5.33702 80.2177 5.33702 79.7902V76.5081ZM15.7565 75.7348C15.3361 75.7348 14.9945 76.0814 14.9945 76.5081V79.7902C14.9945 80.2177 15.3361 80.5635 15.7565 80.5635C16.1777 80.5635 16.5193 80.2177 16.5193 79.7902V76.5081C16.5193 76.0814 16.1777 75.7348 15.7565 75.7348ZM24.9061 76.5081C24.9061 76.0814 25.2478 75.7348 25.6685 75.7348C26.0892 75.7348 26.4309 76.0814 26.4309 76.5081V79.7902C26.4309 80.2177 26.0892 80.5635 25.6685 80.5635C25.2478 80.5635 24.9061 80.2177 24.9061 79.7902V76.5081ZM35.326 75.7348C34.9053 75.7348 34.5635 76.0814 34.5635 76.5081V79.7902C34.5635 80.2177 34.9053 80.5635 35.326 80.5635C35.7474 80.5635 36.0884 80.2177 36.0884 79.7902V76.5081C36.0884 76.0814 35.7474 75.7348 35.326 75.7348ZM44.221 76.5081C44.221 76.0814 44.5626 75.7348 44.9838 75.7348C45.4043 75.7348 45.7459 76.0814 45.7459 76.5081V79.7902C45.7459 80.2177 45.4043 80.5635 44.9838 80.5635C44.5626 80.5635 44.221 80.2177 44.221 79.7902V76.5081ZM11.0552 77.5138C10.7045 77.5138 10.4199 77.7804 10.4199 78.109V79.9683C10.4199 80.2969 10.7045 80.5635 11.0552 80.5635C11.406 80.5635 11.6906 80.2969 11.6906 79.9683V78.109C11.6906 77.7804 11.406 77.5138 11.0552 77.5138ZM20.0773 78.109C20.0773 77.7804 20.3619 77.5138 20.7127 77.5138C21.0635 77.5138 21.3481 77.7804 21.3481 78.109V79.9683C21.3481 80.2969 21.0635 80.5635 20.7127 80.5635C20.3619 80.5635 20.0773 80.2969 20.0773 79.9683V78.109ZM30.3698 77.5138C30.0192 77.5138 29.7348 77.7804 29.7348 78.109V79.9683C29.7348 80.2969 30.0192 80.5635 30.3698 80.5635C30.7211 80.5635 31.0055 80.2969 31.0055 79.9683V78.109C31.0055 77.7804 30.7203 77.5138 30.3698 77.5138ZM39.3923 78.109C39.3923 77.7804 39.6769 77.5138 40.0276 77.5138C40.3784 77.5138 40.663 77.7804 40.663 78.109V79.9683C40.663 80.2969 40.3784 80.5635 40.0276 80.5635C39.6769 80.5635 39.3923 80.2969 39.3923 79.9683V78.109ZM49.6851 77.5138C49.3343 77.5138 49.0497 77.7804 49.0497 78.109V79.9683C49.0497 80.2969 49.3343 80.5635 49.6851 80.5635C50.0358 80.5635 50.3204 80.2969 50.3204 79.9683V78.109C50.3204 77.7804 50.0358 77.5138 49.6851 77.5138ZM18.0765 82.3425L18.0968 82.3418L18.1164 82.3425H58.453V71.4144H2.54144V82.3425H18.0765ZM19.065 89.7127V84.7743L19.0627 84.7741H59.4018C60.0391 84.7741 60.5561 84.257 60.5561 83.6197V70.2902C60.5561 69.6529 60.0391 69.1358 59.4018 69.1358H19.0608L19.178 13.4696H83.6133L83.4945 89.7127H19.065ZM58.3388 34.8539C61.856 35.0463 65.0233 36.5511 67.3595 38.8879C69.864 41.3924 71.4144 44.8536 71.4144 48.6765C71.4144 52.4987 69.8647 55.9597 67.3595 58.4644C64.8542 60.9697 61.3939 62.5193 57.5718 62.5193C53.7489 62.5193 50.2888 60.9697 47.7834 58.465C45.4465 56.128 43.9419 52.9606 43.7494 49.4433H31.7725C31.3493 49.4433 31.0055 49.1003 31.0055 48.6763V22.8775C31.0055 22.4543 31.3493 22.1105 31.7725 22.1105H57.5709C57.994 22.1105 58.3378 22.4543 58.3378 22.8775V34.8539H58.3388ZM26.4861 6.37887V4.32044H32.6343V6.37887C32.6343 6.7001 32.8923 6.96073 33.2103 6.96073C33.5284 6.96073 33.7864 6.7001 33.7864 6.37887V4.32044H39.9359V6.37887C39.9359 6.7001 40.1939 6.96073 40.5119 6.96073C40.8299 6.96073 41.0879 6.7001 41.0879 6.37887V4.32044H47.2367V6.37887C47.2367 6.7001 47.4947 6.96073 47.8127 6.96073C48.1315 6.96073 48.3895 6.7001 48.3895 6.37887V4.32044H54.5382V6.37887C54.5382 6.7001 54.7962 6.96073 55.1142 6.96073C55.4322 6.96073 55.6903 6.7001 55.6903 6.37887V4.32044H61.839V6.37887C61.839 6.7001 62.0978 6.96073 62.4158 6.96073C62.7338 6.96073 62.9918 6.7001 62.9918 6.37887V4.32044H69.1405V6.37887C69.1405 6.7001 69.3986 6.96073 69.7166 6.96073C70.0346 6.96073 70.2926 6.7001 70.2926 6.37887V4.32044H76.4413V6.37887C76.4413 6.7001 76.7001 6.96073 77.0181 6.96073C77.3361 6.96073 77.5941 6.7001 77.5941 6.37887V4.32044H83.6133V11.1823H19.3149V4.32044H25.334V6.37887C25.334 6.7001 25.5921 6.96073 25.9101 6.96073C26.2281 6.96073 26.4861 6.7001 26.4861 6.37887Z" fill="black"/>
</svg>
