<svg width="15" height="15" viewBox="0 0 15 15" fill="none" xmlns="http://www.w3.org/2000/svg">
<path id="Shape Copy 3" fill-rule="evenodd" clip-rule="evenodd" d="M2.19667 2.19678C3.60327 0.790269 5.51088 0.000128572 7.5 0.000128572L7.49987 0C8.81643 0 10.1098 0.346534 11.25 1.00473C12.3901 1.66302 13.337 2.60985 13.9953 3.74994C14.6535 4.89021 15 6.18358 15 7.50006C15 9.48908 14.2099 11.3968 12.8033 12.8033C11.3967 14.2099 9.48903 15 7.5 15C5.51097 15 3.6032 14.2099 2.19667 12.8033C0.790147 11.3968 0 9.48908 0 7.50006C0 5.51105 0.790147 3.6033 2.19667 2.19678ZM7.40586 9.82463L11.7646 6.15811L11.7646 6.158C11.9558 5.99695 12.039 5.75454 11.9827 5.52207C11.9264 5.28949 11.7392 5.10222 11.4916 5.03079C11.244 4.95925 10.9738 5.01438 10.7825 5.17532L6.93655 8.4107L5.24901 6.86207C5.11365 6.73338 4.92759 6.66006 4.73276 6.6585C4.53792 6.65705 4.35052 6.72736 4.21273 6.85381C4.07507 6.98026 3.99833 7.15212 4.00003 7.33103C4.00173 7.50982 4.08163 7.68046 4.22185 7.80468L6.40121 9.80465C6.53352 9.92619 6.71193 9.99605 6.8991 9.99985C7.08624 10.0035 7.26782 9.94081 7.40586 9.82463Z" fill="#E4E4E4"/>
</svg>
